<svg width="25" height="28" viewBox="0 0 25 28" fill="none" xmlns="http://www.w3.org/2000/svg">
<path d="M16.1761 1.45341C15.6234 0.946748 14.8816 0.666748 14.1106 0.666748H3.68155C2.08155 0.666748 0.772461 1.86675 0.772461 3.33341V24.6667C0.772461 26.1334 2.06701 27.3334 3.66701 27.3334H21.1361C22.7361 27.3334 24.0452 26.1334 24.0452 24.6667V9.77341C24.0452 9.06675 23.7397 8.38675 23.187 7.89341L16.1761 1.45341ZM16.7725 19.3334H13.8634V22.0001C13.8634 22.7334 13.2088 23.3334 12.4088 23.3334C11.6088 23.3334 10.9543 22.7334 10.9543 22.0001V19.3334H8.04519C7.24519 19.3334 6.59064 18.7334 6.59064 18.0001C6.59064 17.2667 7.24519 16.6667 8.04519 16.6667H10.9543V14.0001C10.9543 13.2667 11.6088 12.6667 12.4088 12.6667C13.2088 12.6667 13.8634 13.2667 13.8634 14.0001V16.6667H16.7725C17.5725 16.6667 18.227 17.2667 18.227 18.0001C18.227 18.7334 17.5725 19.3334 16.7725 19.3334ZM13.8634 8.66675V2.66675L21.8634 10.0001H15.3179C14.5179 10.0001 13.8634 9.40008 13.8634 8.66675Z" fill="black"/>
</svg>
