<svg xmlns="http://www.w3.org/2000/svg" xmlns:xlink="http://www.w3.org/1999/xlink" viewBox="0 0 1920.27 400"><defs><style>.cls-1{fill:url(#linear-gradient);}.cls-2{fill:url(#linear-gradient-2);}.cls-3{fill:url(#linear-gradient-3);}.cls-4{fill:url(#radial-gradient);}.cls-5{fill:#fff;}.cls-5,.cls-6,.cls-7,.cls-8,.cls-9{stroke:#fff;stroke-miterlimit:10;stroke-width:0.1px;}.cls-6{fill:none;}.cls-7{fill:url(#linear-gradient-4);}.cls-8{fill:url(#linear-gradient-5);}.cls-9{fill:url(#linear-gradient-6);}.cls-10{fill:url(#linear-gradient-7);}.cls-11{fill:url(#linear-gradient-8);}.cls-12{fill:#440641;}</style><linearGradient id="linear-gradient" x1="922.78" y1="199.54" x2="-1262.86" y2="199.54" gradientTransform="matrix(1, 0, 0, 1, 0.31, 0.08)" gradientUnits="userSpaceOnUse"><stop offset="0.15" stop-color="#ffc803"/><stop offset="0.18" stop-color="#ffcc18"/><stop offset="0.25" stop-color="#ffd644"/><stop offset="0.33" stop-color="#ffde6a"/><stop offset="0.41" stop-color="#ffe489"/><stop offset="0.49" stop-color="#ffeaa1"/><stop offset="0.58" stop-color="#ffedb3"/><stop offset="0.68" stop-color="#ffefbd"/><stop offset="0.79" stop-color="#fff0c0"/></linearGradient><linearGradient id="linear-gradient-2" x1="1225.22" y1="357.69" x2="1792.25" y2="-640.88" gradientTransform="matrix(1, 0, 0, 1, 0.31, 0.08)" gradientUnits="userSpaceOnUse"><stop offset="0.13" stop-color="#0f7087"/><stop offset="0.22" stop-color="#14738a"/><stop offset="0.31" stop-color="#217d93"/><stop offset="0.42" stop-color="#388da2"/><stop offset="0.52" stop-color="#58a4b6"/><stop offset="0.63" stop-color="#80c1d1"/><stop offset="0.74" stop-color="#b1e4f1"/><stop offset="0.79" stop-color="#c7f4ff"/></linearGradient><linearGradient id="linear-gradient-3" x1="1234.03" y1="54.11" x2="1668.68" y2="833.16" gradientTransform="matrix(1, 0, 0, 1, 0.31, 0.08)" gradientUnits="userSpaceOnUse"><stop offset="0" stop-color="#d9167e"/><stop offset="0.19" stop-color="#d9167e"/><stop offset="0.31" stop-color="#da1a80"/><stop offset="0.44" stop-color="#dd2688"/><stop offset="0.56" stop-color="#e13a94"/><stop offset="0.69" stop-color="#e857a5"/><stop offset="0.81" stop-color="#f07cbb"/><stop offset="0.94" stop-color="#faa8d6"/><stop offset="0.99" stop-color="#ffbde3"/></linearGradient><radialGradient id="radial-gradient" cx="926.13" cy="200" r="160.93" gradientUnits="userSpaceOnUse"><stop offset="0" stop-color="#fff"/><stop offset="0.01" stop-color="#fff" stop-opacity="0.99"/><stop offset="0.13" stop-color="#fff" stop-opacity="0.76"/><stop offset="0.25" stop-color="#fff" stop-opacity="0.56"/><stop offset="0.37" stop-color="#fff" stop-opacity="0.39"/><stop offset="0.5" stop-color="#fff" stop-opacity="0.25"/><stop offset="0.62" stop-color="#fff" stop-opacity="0.14"/><stop offset="0.74" stop-color="#fff" stop-opacity="0.06"/><stop offset="0.87" stop-color="#fff" stop-opacity="0.02"/><stop offset="1" stop-color="#fff" stop-opacity="0"/></radialGradient><linearGradient id="linear-gradient-4" x1="954.4" y1="192.37" x2="952.34" y2="87.19" gradientTransform="matrix(1, 0, 0, 1, 0.31, 0.08)" gradientUnits="userSpaceOnUse"><stop offset="0.13" stop-color="#0f7087"/><stop offset="0.35" stop-color="#519fb2"/><stop offset="0.65" stop-color="#a6dce9"/><stop offset="0.79" stop-color="#c7f4ff"/></linearGradient><linearGradient id="linear-gradient-5" x1="921.18" y1="187.63" x2="847.55" y2="245.28" gradientTransform="matrix(1, 0, 0, 1, 0.31, 0.08)" gradientUnits="userSpaceOnUse"><stop offset="0.15" stop-color="#ffc803"/><stop offset="0.23" stop-color="#ffd230"/><stop offset="0.32" stop-color="#ffdb5c"/><stop offset="0.41" stop-color="#ffe280"/><stop offset="0.51" stop-color="#ffe89c"/><stop offset="0.6" stop-color="#ffedb0"/><stop offset="0.7" stop-color="#ffefbc"/><stop offset="0.79" stop-color="#fff0c0"/></linearGradient><linearGradient id="linear-gradient-6" x1="934.54" y1="223.65" x2="1027.22" y2="274.87" gradientTransform="matrix(1, 0, 0, 1, 0.31, 0.08)" gradientUnits="userSpaceOnUse"><stop offset="0" stop-color="#d9167e"/><stop offset="0.19" stop-color="#d9167e"/><stop offset="0.23" stop-color="#db1f83"/><stop offset="0.28" stop-color="#e13792"/><stop offset="0.29" stop-color="#e13993"/><stop offset="0.37" stop-color="#e64ea0"/><stop offset="0.48" stop-color="#ee73b6"/><stop offset="0.51" stop-color="#f388c3"/><stop offset="0.56" stop-color="#f89fd1"/><stop offset="0.62" stop-color="#fcb0db"/><stop offset="0.68" stop-color="#febae1"/><stop offset="0.76" stop-color="#ffbde3"/></linearGradient><linearGradient id="linear-gradient-7" x1="964.91" y1="147.74" x2="1012.79" y2="202.14" gradientTransform="matrix(0.98, 0.09, -0.09, 0.91, 10.54, -13.03)" gradientUnits="userSpaceOnUse"><stop offset="0"/><stop offset="0.67" stop-color="#d1d1d1" stop-opacity="0"/></linearGradient><linearGradient id="linear-gradient-8" x1="963.39" y1="145.5" x2="986.64" y2="171.91" xlink:href="#linear-gradient-7"/></defs><title>Dicey Classroom Cover</title><g id="Layer_2" data-name="Layer 2"><g id="Layer_1-2" data-name="Layer 1"><polygon class="cls-1" points="823.55 0 0 0 0 400 822.27 400 935.59 205.47 935.52 205.47 823.55 0"/><polygon class="cls-2" points="935.52 205.47 935.59 205.47 935.7 205.29 935.59 205.47 1920 202.68 1920.18 0 823.55 0 935.52 205.47"/><polygon class="cls-3" points="935.59 205.47 822.27 400 1920.09 400 1920.27 202.68 935.59 205.47"/><circle class="cls-4" cx="926.13" cy="200" r="160.93"/><path class="cls-5" d="M923.41,168.37l50.43,30.51a7.38,7.38,0,0,1,3.58,6.51l31.24-.63a13,13,0,0,0-1.72-6.51l-29.7-51.54a12.9,12.9,0,0,0-11.19-6.48l-59.49,0a12.81,12.81,0,0,0-5.9,1.42l14.7,27A7.37,7.37,0,0,1,923.41,168.37Z"/><path class="cls-5" d="M911.47,233.46l.66-58.81a7.35,7.35,0,0,1,3.23-6l-14.7-27a12.89,12.89,0,0,0-5.3,5l-29.79,51.49a12.93,12.93,0,0,0,0,12.93l29.7,51.55a13,13,0,0,0,4.59,4.65l15.71-27.09A7.37,7.37,0,0,1,911.47,233.46Z"/><path class="cls-5" d="M977.42,205.39a7.37,7.37,0,0,1-3.83,6.35l-51.08,28.31a7.32,7.32,0,0,1-7,.11l-15.71,27.09a13,13,0,0,0,6.6,1.83l59.49.05a13,13,0,0,0,11.21-6.46l29.79-51.49a12.89,12.89,0,0,0,1.73-6.42Z"/><path class="cls-5" d="M980.13,208.15l-49.88-33c-4.87-3.22-11.73-.64-12.31,4.62l-5.85,53.77c-.56,5.21,5.49,9.17,10.93,7.14l55.72-20.79C984.2,217.86,985,211.35,980.13,208.15Z"/><path class="cls-5" d="M973.84,198.88l-50.43-30.51a7.44,7.44,0,0,0-11.28,6.28l-.66,58.81a7.46,7.46,0,0,0,11,6.59l51.08-28.31a7.43,7.43,0,0,0,.25-12.86Z"/><path class="cls-6" d="M967.64,141.9l-62.33-.05a8.32,8.32,0,0,0-7.22,4.15L866.88,200a8.34,8.34,0,0,0,0,8.33l31.12,54a8.34,8.34,0,0,0,7.21,4.18l62.32.05a8.31,8.31,0,0,0,7.22-4.16L1006,208.41a8.34,8.34,0,0,0,0-8.33l-31.12-54A8.35,8.35,0,0,0,967.64,141.9Z"/><path class="cls-5" d="M976.14,204.9l30.2-.75M902.06,143.38l13.94,26m.5,69.25L901,265m71.72-66.41L924,169.11a7.19,7.19,0,0,0-10.91,6.06L912.47,232a7.19,7.19,0,0,0,10.67,6.37L972.52,211A7.18,7.18,0,0,0,972.75,198.6Z"/><path class="cls-7" d="M923.75,169.33,972.84,199a7.17,7.17,0,0,1,3.49,6.33l30.42-.61a12.57,12.57,0,0,0-1.68-6.34l-28.91-50.18a12.61,12.61,0,0,0-10.9-6.31l-57.91-.05a12.55,12.55,0,0,0-5.75,1.39l14.31,26.29A7.19,7.19,0,0,1,923.75,169.33Z"/><path class="cls-8" d="M912.13,232.7l.64-57.26a7.17,7.17,0,0,1,3.14-5.88L901.6,143.27a12.48,12.48,0,0,0-5.16,4.9l-29,50.13a12.61,12.61,0,0,0,0,12.59l28.91,50.18a12.58,12.58,0,0,0,4.47,4.52l15.29-26.37A7.18,7.18,0,0,1,912.13,232.7Z"/><path class="cls-9" d="M976.33,205.37a7.19,7.19,0,0,1-3.73,6.19l-49.73,27.55a7.13,7.13,0,0,1-6.78.11L900.8,265.59a12.56,12.56,0,0,0,6.43,1.78l57.92.06a12.63,12.63,0,0,0,10.91-6.29l29-50.13a12.56,12.56,0,0,0,1.69-6.25Z"/><path class="cls-10" d="M979,208.06l-48.56-32.12c-4.74-3.13-11.42-.63-12,4.49l-5.7,52.36c-.55,5.07,5.34,8.92,10.64,6.94l54.25-20.24C982.93,217.52,983.68,211.17,979,208.06Z"/><path class="cls-5" d="M972.84,199l-49.09-29.71a7.24,7.24,0,0,0-11,6.11l-.64,57.26a7.25,7.25,0,0,0,10.74,6.41l49.73-27.55a7.23,7.23,0,0,0,.24-12.52Z"/><path class="cls-11" d="M957,208.13l-23.58-15.6c-2.3-1.52-5.55-.3-5.82,2.19l-2.76,25.42c-.27,2.46,2.59,4.33,5.16,3.37l26.34-9.83A3,3,0,0,0,957,208.13Z"/><path class="cls-12" d="M956.45,202.22l-26.13-15.81a3.87,3.87,0,0,0-5.85,3.26l-.34,30.47a3.87,3.87,0,0,0,5.72,3.42l26.47-14.67a3.86,3.86,0,0,0,.13-6.67Z"/></g></g></svg>