<?xml version="1.0" standalone="no"?>
<!DOCTYPE svg PUBLIC "-//W3C//DTD SVG 20010904//EN"
 "http://www.w3.org/TR/2001/REC-SVG-20010904/DTD/svg10.dtd">
<svg version="1.0" xmlns="http://www.w3.org/2000/svg"
 width="640.000000pt" height="426.000000pt" viewBox="0 0 640.000000 426.000000"
 preserveAspectRatio="xMidYMid meet">

<g transform="translate(0.000000,426.000000) scale(0.100000,-0.100000)"
fill="#000000" stroke="none">
<path d="M385 4222 c-15 -19 -31 -51 -36 -71 -11 -47 -11 -101 0 -101 5 0 7
-38 6 -85 -2 -47 1 -88 6 -91 5 -3 9 22 9 55 0 45 4 61 14 61 10 0 13 -14 13
-50 -1 -58 7 -71 27 -44 13 17 13 19 -5 22 -10 2 -19 7 -19 11 0 5 11 6 25 3
14 -2 25 -11 25 -18 0 -8 5 -14 10 -14 6 0 10 -8 10 -17 0 -14 2 -15 9 -4 5 7
22 15 39 17 27 3 30 1 27 -22 -3 -35 -8 -37 -54 -23 -42 12 -67 5 -41 -11 15
-10 58 -15 93 -12 11 1 17 -3 14 -10 -2 -7 -16 -12 -30 -11 -15 1 -27 -2 -27
-6 0 -5 -11 -11 -25 -13 -17 -4 -25 -1 -25 8 0 17 -12 18 -29 2 -7 -7 -28 -13
-48 -13 -23 0 -40 -6 -46 -17 -14 -21 -1 -36 15 -20 16 16 28 15 28 -2 0 -11
7 -12 35 -4 30 10 39 8 69 -12 18 -13 32 -29 29 -36 -3 -8 2 -11 16 -7 15 4
21 1 21 -11 0 -9 3 -15 8 -15 24 4 52 -2 47 -11 -8 -12 7 -13 20 -1 16 14 75
22 75 10 0 -6 5 -7 10 -4 11 7 -42 65 -59 65 -14 0 -14 11 0 30 9 12 10 12 5
-4 -5 -13 -2 -17 9 -12 8 3 15 1 15 -4 0 -6 6 -10 14 -10 8 0 17 -7 20 -16 3
-8 10 -13 15 -10 5 3 17 -6 27 -19 10 -14 24 -25 30 -25 7 0 15 -7 18 -16 3
-8 11 -12 17 -8 8 5 9 3 4 -6 -5 -8 -2 -18 8 -25 17 -12 13 -60 -5 -49 -5 3
-6 15 -2 26 5 16 2 19 -13 14 -13 -4 -24 3 -38 24 -22 33 -35 38 -35 15 0 -27
-1 -30 -20 -50 -10 -11 -18 -23 -17 -26 1 -3 -11 -27 -28 -54 -16 -26 -29 -52
-27 -57 1 -5 -2 -7 -8 -3 -5 3 -10 2 -10 -4 0 -5 -21 -24 -46 -42 -32 -22 -42
-34 -34 -39 9 -6 4 -13 -17 -24 -17 -8 -33 -12 -37 -9 -3 4 -6 1 -6 -5 0 -17
-79 -15 -109 2 l-25 14 56 36 c53 33 78 56 63 56 -4 0 -21 -11 -38 -24 -56
-41 -64 -39 -17 3 25 22 39 41 31 41 -8 0 -23 -7 -33 -17 -20 -18 -25 -11 -5
9 7 7 23 31 37 53 l23 40 -25 -23 c-21 -19 -26 -21 -31 -8 -4 10 -13 13 -24 9
-15 -5 -16 -3 -5 8 16 18 15 30 -2 23 -8 -3 -17 -13 -20 -22 -3 -10 -4 -2 -2
16 1 17 -1 32 -5 32 -18 0 -94 -219 -105 -303 -4 -26 -10 -44 -14 -42 -9 5
-20 -70 -20 -135 0 -26 9 -78 21 -115 19 -64 20 -71 5 -139 -26 -128 -28 -144
-12 -153 8 -4 16 -19 18 -32 2 -17 10 -25 25 -26 18 -1 26 7 37 39 14 40 14
41 17 11 1 -16 1 -48 1 -70 0 -22 2 -31 5 -20 9 34 23 41 23 12 0 -15 5 -27
10 -27 15 0 12 -140 -4 -195 -8 -26 -13 -62 -11 -79 4 -23 2 -21 -7 9 -6 22
-15 43 -21 47 -7 4 -6 30 2 80 7 44 8 85 3 103 -8 26 -10 18 -16 -48 -4 -43
-12 -93 -17 -110 -5 -18 -7 -62 -3 -98 7 -72 19 -102 32 -82 4 6 16 11 27 10
13 -1 19 3 17 13 -2 10 0 12 7 5 5 -5 19 -46 30 -90 11 -44 27 -105 36 -134
15 -57 8 -77 -23 -66 -8 3 -20 5 -28 5 -8 0 -28 22 -45 50 -17 27 -32 50 -34
50 -2 0 -2 -30 0 -67 1 -38 0 -58 -2 -46 -2 12 -11 27 -19 33 -8 7 -14 19 -14
28 0 8 -3 12 -7 9 -3 -4 -14 7 -24 23 -18 30 -59 42 -59 18 0 -9 -3 -9 -12 0
-17 17 -28 15 -28 -4 0 -8 -4 -13 -9 -9 -5 3 -12 1 -16 -5 -4 -6 -10 -8 -15
-5 -12 7 -47 86 -60 134 -5 20 -16 45 -24 56 -13 18 -15 -98 -16 -958 0 -780
2 -978 12 -982 7 -2 117 -9 243 -15 308 -16 393 -24 437 -43 28 -13 56 -15
122 -12 48 3 97 10 111 15 14 5 51 9 83 9 79 0 246 56 297 101 45 40 136 49
755 70 327 11 694 23 815 27 403 14 814 5 823 -18 2 -5 11 -10 20 -10 10 -1 4
-5 -13 -9 -28 -7 -27 -8 13 -9 23 0 42 -5 42 -11 0 -5 9 -10 20 -10 11 0 20
-6 20 -14 0 -10 19 -16 63 -22 l62 -7 -45 -13 -45 -12 60 -3 c33 -1 70 -2 83
-1 12 0 22 -3 22 -9 0 -5 -18 -9 -40 -9 -33 0 -40 -3 -40 -20 0 -21 4 -22 103
-25 53 -1 68 12 26 22 -27 8 -34 14 -34 34 0 17 -6 25 -22 27 -13 2 -23 9 -24
15 0 7 -2 20 -4 30 -3 17 2 18 43 14 122 -14 211 -48 155 -59 -10 -2 8 -9 39
-16 42 -10 56 -17 51 -28 -3 -8 0 -14 7 -14 7 0 9 -8 5 -20 -4 -12 -2 -20 5
-20 6 0 9 -4 6 -9 -3 -4 24 -7 59 -6 36 2 65 1 65 -1 0 -2 -6 -14 -12 -25 -10
-16 -10 -23 -2 -26 6 -2 34 -21 63 -42 50 -38 52 -38 168 -45 65 -4 147 -11
183 -17 36 -5 212 -12 393 -15 295 -5 327 -4 327 10 0 12 -10 16 -39 16 -22 0
-42 4 -45 8 -5 8 44 3 126 -13 21 -4 35 -11 32 -16 -3 -5 172 -9 400 -9 l406
0 0 736 0 735 -37 34 c-37 34 -53 37 -53 9 0 -21 -16 -17 -27 8 -8 19 -11 14
-22 -40 -12 -62 -24 -78 -34 -44 -2 9 -8 25 -12 35 -4 10 -3 17 4 17 6 0 11
-7 11 -15 0 -8 4 -15 10 -15 14 0 2 90 -18 128 -9 17 -24 32 -34 32 -25 0 -68
21 -68 34 0 13 74 14 108 2 12 -4 20 -11 17 -16 -3 -4 4 -6 14 -3 11 3 33 -4
50 -16 16 -12 33 -21 37 -21 4 0 18 -10 31 -22 l23 -21 0 31 c0 30 -4 34 -122
91 -77 37 -140 61 -169 64 -54 6 -82 19 -104 50 -8 12 -18 21 -20 20 -17 -9
-23 5 -28 67 -6 72 -13 85 -91 184 -28 35 -28 37 -11 62 22 33 102 115 175
177 38 33 46 44 28 36 -16 -7 -28 -16 -28 -20 0 -4 -15 -16 -32 -27 -18 -12
-46 -31 -63 -43 l-30 -23 20 23 c11 13 19 25 18 27 -8 13 -1 25 11 21 9 -4 13
-1 11 6 -2 7 16 28 40 47 24 19 44 39 44 43 1 14 -42 -4 -80 -34 -20 -16 -39
-29 -42 -29 -9 0 -2 27 11 42 6 8 9 18 5 21 -3 4 1 7 9 7 9 0 18 9 21 21 3 12
10 18 17 14 6 -4 9 -13 6 -21 -5 -14 8 -11 53 12 27 14 51 8 51 -13 0 -8 -4
-11 -10 -8 -6 3 -10 -3 -10 -15 0 -14 4 -19 12 -14 8 5 9 2 5 -9 -6 -16 -4
-16 23 -2 l30 15 -21 53 c-26 67 -47 90 -76 84 -18 -3 -23 0 -23 15 0 11 8 22
18 25 10 2 31 34 50 76 31 72 32 72 27 209 -2 76 -6 142 -10 148 -3 5 -1 10 5
10 8 0 8 6 0 20 -6 11 -8 25 -5 30 3 6 -5 25 -19 43 -15 19 -26 39 -26 45 0 7
-4 12 -10 12 -5 0 -10 6 -10 14 0 7 -9 16 -20 19 -11 3 -20 12 -20 21 0 9 -8
16 -19 16 -10 0 -21 9 -24 19 -3 14 -11 18 -25 14 -14 -3 -22 1 -27 16 -6 20
-35 27 -89 22 -11 -1 -17 1 -13 5 11 11 -31 47 -45 38 -7 -5 -21 -7 -30 -6
-10 2 -18 -2 -18 -9 0 -8 -6 -7 -17 4 -15 13 -22 13 -41 3 -12 -7 -19 -15 -15
-20 4 -4 -5 -3 -19 3 -21 8 -31 7 -42 -4 -8 -8 -32 -18 -53 -21 -21 -3 -42
-12 -46 -20 -4 -8 -15 -14 -22 -14 -8 0 -14 -6 -12 -12 1 -7 -5 -12 -14 -10
-8 1 -22 -9 -29 -23 -7 -14 -17 -25 -21 -25 -4 0 -14 -6 -21 -12 -7 -7 -45
-41 -85 -75 -70 -62 -71 -62 -89 -42 -33 36 -54 41 -197 45 -120 3 -146 1
-181 -15 -48 -22 -105 -80 -134 -136 l-21 -40 -1 65 c0 36 4 169 10 295 16
381 32 987 26 993 -3 3 -8 3 -11 1 -2 -3 -11 -232 -20 -510 -8 -277 -20 -610
-26 -739 -6 -129 -12 -355 -14 -502 -1 -146 -6 -271 -9 -277 -4 -6 -16 -11
-27 -11 -24 0 -26 37 -2 78 11 19 14 35 8 48 -4 10 -9 24 -9 29 -3 17 -40 75
-49 75 -5 0 -5 5 -1 11 4 7 13 1 24 -16 l18 -27 -2 30 c-1 17 -5 34 -9 38 -4
4 -7 23 -7 43 0 20 -4 31 -8 24 -4 -7 -7 5 -7 26 0 21 -9 51 -20 67 -13 19
-20 48 -22 88 -1 32 -6 62 -11 65 -18 11 -18 46 0 46 9 0 20 4 24 8 4 4 -3 7
-15 7 -12 0 -23 6 -25 13 -2 6 -9 37 -16 67 -7 30 -16 60 -20 65 -5 6 -11 30
-13 55 -8 66 -37 169 -60 215 -13 26 -16 40 -8 43 6 2 11 11 11 20 0 12 -3 13
-11 5 -9 -9 -21 1 -50 37 -47 60 -99 100 -128 100 -12 0 -36 7 -52 16 -52 27
-129 26 -188 -2 -29 -13 -58 -21 -64 -17 -6 3 -7 1 -3 -5 4 -7 1 -12 -9 -12
-22 0 -106 -81 -147 -140 -18 -27 -38 -50 -44 -50 -9 0 -23 -29 -23 -48 0 -1
-14 -17 -30 -34 -16 -18 -38 -49 -48 -70 -10 -21 -23 -38 -29 -38 -19 0 -43
-35 -50 -71 -9 -46 -32 -71 -58 -63 -16 5 -18 3 -10 -6 8 -8 9 -21 1 -43 -21
-66 -29 -77 -59 -77 -16 0 -30 -6 -32 -12 -13 -53 -33 -100 -41 -100 -24 0
-44 -20 -50 -50 -10 -46 -36 -99 -45 -93 -5 3 -7 21 -6 40 2 19 -1 35 -5 35
-5 0 -9 -9 -9 -20 0 -11 -2 -20 -5 -20 -17 0 -132 66 -143 82 -8 10 -19 17
-25 15 -7 -2 -32 3 -57 12 -31 12 -55 15 -75 9 -16 -4 -68 -9 -116 -11 -83 -4
-88 -6 -144 -45 -32 -23 -64 -42 -71 -42 -17 0 -64 -67 -115 -165 -36 -69 -43
-91 -47 -157 -4 -67 -7 -78 -23 -78 -10 0 -21 -9 -24 -20 -3 -11 -13 -26 -21
-34 -10 -11 -12 -21 -5 -39 8 -20 5 -26 -18 -40 -32 -19 -37 -53 -16 -118 16
-47 53 -81 123 -112 22 -10 -20 -12 -237 -15 -145 -1 -266 -1 -268 1 -2 3 -8
30 -13 62 -21 127 -88 201 -221 245 -71 23 -80 36 -41 56 65 32 118 118 143
227 8 34 19 57 27 57 7 0 10 5 7 11 -4 6 2 17 14 25 12 8 21 26 21 39 0 13 16
42 35 65 43 52 44 72 4 196 -22 69 -34 94 -44 90 -8 -3 -16 0 -19 7 -2 7 -5 1
-5 -12 -1 -13 -8 -31 -16 -40 -8 -9 -25 -27 -36 -41 -20 -24 -20 -18 -3 25 4
11 2 13 -10 9 -8 -3 -18 -13 -21 -23 -3 -9 -14 -17 -24 -17 -16 0 -19 5 -14
31 l6 30 -32 -35 -32 -35 4 36 c4 36 29 84 39 73 3 -2 1 17 -5 43 -5 26 -11
63 -12 81 -1 17 -9 40 -19 50 -20 23 -21 33 -1 26 8 -4 15 -2 15 4 0 15 -57
32 -107 32 -24 0 -54 5 -66 12 -36 19 -86 27 -91 14 -3 -8 -5 -7 -5 1 -1 9 -9
9 -30 2 -42 -15 -63 -41 -53 -68 l8 -22 24 26 c27 29 45 33 31 8 -17 -32 -76
-86 -98 -90 -6 -1 -14 4 -17 13 -3 8 -2 12 4 9 6 -3 10 -1 10 6 0 7 7 21 17
31 9 10 13 21 9 25 -9 9 -65 -56 -66 -74 0 -7 -4 -13 -9 -13 -5 0 -11 -8 -13
-17 -5 -20 -54 -50 -64 -40 -7 7 50 110 72 127 12 11 12 15 2 22 -9 6 -7 8 7
6 15 -2 19 2 17 17 -2 12 0 16 5 9 6 -8 17 -6 37 7 l30 18 -25 10 c-13 5 -36
14 -52 20 -15 6 -32 23 -37 38 -6 16 -15 36 -21 47 -8 14 -8 21 3 28 10 7 10
9 -2 7 -33 -3 -41 2 -38 24 3 19 -2 22 -32 23 -26 1 -28 1 -7 -3 31 -5 36 -23
8 -30 -24 -6 -36 -32 -21 -47 15 -15 12 -23 -10 -29 -20 -5 -24 2 -20 36 1 10
-4 25 -11 33 -8 10 -9 18 -3 22 15 10 25 42 14 42 -6 0 -10 7 -10 16 0 8 4 13
9 9 5 -3 13 0 17 6 5 9 -1 10 -20 5 -22 -5 -26 -3 -26 15 0 29 -25 79 -56 112
-23 25 -24 29 -9 43 9 9 23 13 32 9 15 -5 15 -7 3 -15 -8 -6 -10 -10 -5 -10 6
0 17 4 25 10 9 5 19 5 27 -2 19 -16 27 -3 9 14 -8 9 -44 18 -83 22 -53 5 -75
12 -95 31 -16 15 -33 22 -43 19 -8 -4 -21 -1 -29 5 -19 16 -135 72 -168 82
-18 5 -28 4 -28 -3 0 -5 9 -12 20 -15 11 -3 20 -9 20 -14 0 -12 -27 -12 -35 0
-3 5 -19 12 -36 16 l-31 7 21 19 c11 11 28 33 36 49 9 17 23 30 33 30 10 0 23
5 29 11 7 7 21 6 46 -4 29 -13 36 -13 41 -2 4 11 12 11 41 3 35 -11 35 -12 32
-60 -7 -81 25 -53 37 33 6 44 10 48 62 74 31 16 61 39 67 52 7 16 19 23 41 24
17 0 25 3 18 6 -10 4 -10 8 -1 19 17 20 6 27 -30 19 -23 -5 -33 -14 -37 -33
-10 -42 -34 -64 -62 -57 -17 4 -22 2 -16 -6 4 -8 3 -9 -5 -5 -18 11 -91 14
-97 4 -3 -5 -2 -8 3 -7 4 1 24 -1 44 -5 l36 -8 -22 -24 c-27 -29 -29 -29 -80
-4 -22 10 -44 16 -49 13 -5 -4 -6 -1 -2 5 4 6 13 9 21 6 10 -4 12 0 8 15 -4
17 -2 20 12 14 14 -5 16 -3 10 7 -6 10 1 12 33 7 24 -3 42 -1 42 4 0 6 12 8
26 7 16 -2 29 3 32 10 2 8 -2 12 -9 11 -8 -2 -27 0 -43 5 -20 5 -32 3 -37 -6
-4 -7 -12 -9 -16 -4 -13 13 28 36 65 36 31 0 33 -2 21 -17 -13 -17 -13 -17 13
0 34 21 33 22 34 -8 1 -14 -2 -25 -7 -25 -5 0 -9 -5 -9 -12 0 -6 8 -4 20 7 10
9 19 20 18 24 0 3 1 9 2 14 1 4 3 12 4 19 0 7 12 15 26 18 17 4 24 12 22 25
-3 13 1 16 13 11 9 -3 20 -6 25 -6 4 0 7 -7 6 -16 0 -9 5 -19 13 -22 9 -3 11
1 7 16 -5 13 -1 22 10 26 13 5 14 9 4 21 -9 10 -9 15 -1 15 6 0 11 -5 11 -11
0 -5 6 -7 13 -3 6 4 2 -4 -11 -18 -14 -16 -19 -28 -13 -32 5 -4 18 5 27 19 10
15 26 25 40 25 27 0 50 42 37 63 -11 17 -41 17 -47 0 -3 -8 -1 -11 4 -8 6 3 7
-1 4 -9 -3 -9 -15 -16 -26 -16 -10 0 -16 5 -13 10 10 16 -7 12 -42 -9 -17 -11
-47 -23 -66 -26 -34 -7 -34 -7 -32 29 2 25 -1 36 -10 36 -14 0 -18 -4 -55 -50
-10 -14 -19 -20 -20 -14 0 20 54 73 80 77 25 4 25 4 3 12 -13 4 -23 11 -23 15
0 5 -10 6 -22 3 -16 -4 -20 -2 -13 5 6 5 19 12 30 15 18 4 18 5 -2 6 -13 0
-23 6 -23 11 0 6 -7 10 -16 10 -14 0 -14 -3 -4 -15 14 -17 7 -19 -18 -6 -21
11 -114 22 -108 12 2 -3 -1 -14 -8 -23 -10 -14 -19 -15 -52 -8 -51 12 -64 12
-64 0 0 -5 9 -10 20 -10 12 0 32 -7 46 -16 23 -16 24 -15 17 1 -4 13 -3 16 6
11 7 -5 10 -14 7 -22 -3 -8 1 -14 9 -14 8 0 15 9 15 20 0 11 5 20 10 20 6 0
10 -7 10 -16 0 -12 6 -15 24 -10 15 4 26 1 28 -6 3 -7 12 -9 23 -4 16 6 17 9
5 16 -9 6 -10 10 -3 10 20 0 24 -17 7 -31 -12 -10 -20 -10 -35 -1 -17 11 -19
9 -19 -23 0 -19 -5 -35 -11 -35 -5 0 -7 -5 -3 -12 5 -8 2 -9 -10 -5 -10 4 -20
7 -22 7 -13 0 -1 20 16 25 28 9 25 24 -7 31 -16 3 -36 8 -45 11 -12 3 -18 -1
-18 -11 0 -20 -7 -20 -26 -1 -9 8 -12 19 -9 25 4 6 -6 10 -24 10 -17 0 -31 -4
-31 -9 0 -12 -71 -4 -84 9 -7 7 -3 10 10 10 11 0 26 -6 33 -12 10 -11 16 -8
32 12 11 14 26 32 33 41 12 15 10 17 -13 17 -14 0 -37 -9 -50 -19 -26 -21 -41
-24 -41 -9 0 6 7 10 15 10 28 0 15 17 -14 18 -26 1 -29 -2 -27 -28 2 -27 0
-29 -26 -25 -21 4 -28 1 -28 -10 0 -8 -8 -15 -17 -15 -14 0 -12 5 8 28 13 15
30 32 37 38 10 9 3 12 -31 11 -39 0 -49 -5 -72 -35z m75 23 c0 -3 -11 -18 -25
-33 -17 -18 -25 -22 -25 -12 0 13 -2 13 -9 0 -14 -21 -6 -28 60 -46 33 -9 62
-20 65 -25 7 -13 -55 -41 -79 -36 -18 3 -16 5 6 6 16 0 26 5 22 11 -3 6 2 10
12 10 15 0 16 2 3 10 -21 14 -91 33 -115 32 -11 -1 -15 2 -9 6 6 4 19 22 28
40 11 22 22 32 32 28 8 -3 14 -1 14 4 0 6 5 10 10 10 6 0 10 -2 10 -5z m390
-29 c-6 -5 -22 -5 -42 1 l-33 11 42 -2 c25 0 38 -5 33 -10z m-352 -44 c6 -18
-15 -14 -22 4 -4 10 -1 14 6 12 6 -2 14 -10 16 -16z m422 14 c0 -2 -7 -6 -15
-10 -8 -3 -15 -1 -15 4 0 6 7 10 15 10 8 0 15 -2 15 -4z m-323 -42 c-3 -3 -12
-4 -19 -1 -8 3 -5 6 6 6 11 1 17 -2 13 -5z m-182 -42 c-3 -3 -11 0 -18 7 -9
10 -8 11 6 5 10 -3 15 -9 12 -12z m185 14 c0 -2 -7 -6 -15 -10 -8 -3 -15 -1
-15 4 0 6 7 10 15 10 8 0 15 -2 15 -4z m145 -6 c-3 -5 -11 -10 -16 -10 -6 0
-7 5 -4 10 3 6 11 10 16 10 6 0 7 -4 4 -10z m-154 -30 c5 0 9 -6 9 -13 0 -8
14 -12 44 -11 38 1 43 -1 39 -17 -3 -11 0 -19 6 -19 6 0 10 -4 9 -9 -2 -5 6
-17 17 -25 16 -13 17 -15 3 -10 -10 3 -18 2 -18 -4 0 -6 6 -12 13 -15 9 -3 7
-9 -6 -24 -9 -11 -14 -23 -10 -26 8 -9 -10 -9 -31 -1 -23 9 -20 24 4 24 23 0
27 15 5 24 -8 3 -12 12 -9 21 4 11 0 15 -16 15 -15 0 -20 -4 -17 -15 4 -8 2
-17 -4 -21 -6 -4 -6 -11 2 -20 14 -17 5 -18 -21 -4 -16 8 -18 7 -14 -4 9 -24
-18 -31 -35 -9 -9 11 -22 18 -29 15 -6 -2 -12 2 -12 10 0 10 11 12 40 10 37
-4 41 -2 51 27 9 27 14 29 40 24 16 -3 29 -2 29 1 0 13 -29 37 -42 35 -39 -5
-69 2 -66 15 2 8 0 15 -4 14 -28 0 -45 -14 -54 -43 l-11 -34 34 5 c18 2 33 -1
33 -6 0 -6 7 -10 15 -10 8 0 15 -4 15 -10 0 -12 5 -12 -55 4 -27 7 -62 11 -77
9 -14 -2 -29 1 -32 6 -3 5 3 7 14 4 11 -3 20 -1 20 5 0 6 7 12 16 14 10 2 18
15 20 31 1 16 13 37 24 47 20 17 24 17 37 5 8 -8 19 -15 24 -15z m142 7 c7 4
6 0 -2 -10 -12 -15 -10 -18 14 -27 14 -5 31 -10 36 -10 16 0 9 -19 -13 -34
-30 -22 -45 -20 -21 2 10 9 13 13 6 8 -20 -13 -43 1 -43 28 0 13 -5 26 -12 28
-7 3 -9 12 -4 24 7 18 8 18 17 1 6 -10 15 -14 22 -10z m147 -7 c0 -6 -9 -5
-20 2 -11 7 -20 16 -20 21 0 4 9 3 20 -3 11 -6 20 -15 20 -20z m45 20 c-3 -5
-11 -10 -16 -10 -6 0 -7 5 -4 10 3 6 11 10 16 10 6 0 7 -4 4 -10z m-544 -27
c0 -10 3 -13 5 -6 3 7 12 9 19 6 11 -4 12 -10 4 -24 -14 -28 -33 -23 -46 11
-9 25 -9 30 3 30 8 0 14 -8 15 -17z m264 7 c3 -5 -1 -10 -9 -10 -8 0 -18 5
-21 10 -3 6 1 10 9 10 8 0 18 -4 21 -10z m191 -15 c13 -13 13 -15 1 -15 -8 0
-17 7 -21 15 -3 8 -3 15 0 15 3 0 12 -7 20 -15z m-350 -20 c-1 -19 -26 -33
-26 -14 0 4 -3 14 -6 23 -4 10 0 14 14 13 13 -1 19 -8 18 -22z m-43 -10 c-5
-13 -23 -22 -23 -11 0 15 14 35 21 31 4 -3 6 -12 2 -20z m157 -30 c0 -8 -3
-15 -6 -15 -3 0 -12 7 -20 15 -14 13 -13 15 5 15 12 0 21 -6 21 -15z m-100
-77 c0 -4 -7 -8 -15 -8 -8 0 -15 4 -15 8 0 5 7 9 15 9 8 0 15 -4 15 -9z m-162
-611 c9 -10 4 -12 -23 -9 -19 2 -35 8 -35 13 0 14 46 11 58 -4z m432 -37 l35
-7 -40 -11 c-22 -7 -57 -12 -77 -12 -42 0 -61 -22 -51 -58 3 -15 13 -22 29
-22 24 0 50 -33 39 -50 -3 -6 -23 -10 -44 -10 -20 0 -42 -5 -49 -12 -9 -9 -15
-8 -27 8 -13 16 -16 17 -25 4 -8 -12 -10 -11 -10 8 0 13 -6 22 -15 22 -20 0
-19 -13 5 -52 11 -18 20 -27 20 -20 0 6 5 12 10 12 6 0 10 -7 10 -15 0 -8 -4
-15 -9 -15 -5 0 -11 -9 -14 -20 -3 -13 -14 -20 -30 -20 -13 0 -30 -7 -37 -15
-23 -27 -39 -16 -56 39 -15 47 -15 56 -3 68 8 8 20 13 27 10 6 -2 13 2 13 10
1 7 3 23 4 36 5 47 27 70 94 98 36 15 70 31 75 35 9 8 52 5 126 -11z m-305
-46 c18 6 15 -1 -19 -46 -14 -21 -23 -25 -32 -17 -7 6 -17 8 -22 5 -6 -3 -12
3 -15 14 -5 18 4 25 26 21 5 -1 11 8 14 19 4 16 8 18 19 9 8 -6 21 -9 29 -5z
m552 -6 c-3 -8 -6 -5 -6 6 -1 11 2 17 5 13 3 -3 4 -12 1 -19z m393 -130 c0
-11 5 -16 10 -13 6 4 10 -5 10 -19 0 -32 15 -34 24 -3 3 12 9 18 13 12 13 -17
43 -14 43 4 1 10 6 6 16 -11 18 -34 28 -36 20 -4 -8 31 20 44 41 19 14 -17 14
-17 9 0 -7 21 7 22 24 2 15 -18 9 -190 -8 -207 -20 -20 -62 -16 -62 5 0 10 -3
16 -7 14 -5 -3 -9 19 -10 49 -2 66 -22 111 -23 51 0 -23 -8 -49 -20 -64 -23
-29 -23 -29 -11 15 14 46 2 74 -14 36 l-12 -29 -7 38 c-8 42 -20 48 -31 15 -7
-21 -8 -20 -14 11 -5 31 -7 33 -20 18 -17 -21 -41 -22 -41 -2 0 23 22 65 31
59 5 -3 9 1 9 9 0 7 7 14 15 14 8 0 15 -9 15 -19z m2623 1 l22 -22 -49 7 c-27
3 -58 6 -70 7 -18 0 -16 3 9 14 42 20 63 18 88 -6z m-107 -24 c16 -8 25 -15
19 -15 -5 -1 1 -8 15 -16 17 -10 18 -13 5 -9 -47 17 -55 17 -61 1 -4 -10 4
-30 19 -49 18 -23 23 -41 20 -60 -6 -31 8 -34 47 -12 14 8 33 14 43 15 9 0 26
9 38 21 32 32 44 19 44 -45 0 -65 -10 -77 -62 -69 -24 4 -33 11 -33 24 0 24
-12 24 -41 0 -23 -19 -23 -20 -4 -26 57 -20 75 -31 73 -45 -2 -8 -13 -16 -26
-18 -15 -2 -22 1 -20 10 2 8 -10 14 -34 16 -22 2 -38 -1 -38 -7 0 -6 -10 -11
-23 -11 -28 0 -57 45 -57 92 0 18 -5 50 -9 72 -10 40 5 101 31 131 16 18 20
18 54 0z m-3036 -49 c0 -2 -7 -6 -15 -10 -8 -3 -15 -1 -15 4 0 6 7 10 15 10 8
0 15 -2 15 -4z m4083 -56 c-5 -19 -23 -39 -23 -25 0 9 20 45 24 45 2 0 2 -9
-1 -20z m-4022 -117 c15 -34 22 -75 25 -138 3 -51 9 -92 16 -96 8 -5 7 -12 -4
-22 -13 -14 -19 -14 -43 -1 -15 8 -33 14 -40 14 -7 0 -20 26 -29 58 -9 31 -21
71 -26 88 -15 45 -12 62 10 76 11 7 20 20 20 29 0 12 21 30 47 38 1 1 12 -20
24 -46z m4989 -57 c0 -2 -7 -7 -16 -10 -8 -3 -12 -2 -9 4 6 10 25 14 25 6z
m-2547 -13 c-7 -2 -19 -2 -25 0 -7 3 -2 5 12 5 14 0 19 -2 13 -5z m-2306 -37
c1 -11 -1 -16 -4 -9 -2 7 -10 10 -17 7 -8 -3 -16 1 -19 9 -4 10 2 15 17 15 15
0 22 -7 23 -22z m3799 9 c4 -8 12 -15 20 -15 8 0 14 -4 14 -10 0 -5 -7 -10
-15 -10 -8 0 -15 -5 -15 -10 0 -28 -127 -43 -155 -20 -24 20 -18 27 32 39 25
7 55 19 67 27 26 18 45 18 52 -1z m597 -27 c-15 -7 -30 -8 -44 -2 -17 8 -13
10 23 11 37 1 40 0 21 -9z m-1655 -17 c48 -25 115 -98 108 -118 -4 -8 -15 -17
-26 -20 -27 -7 -15 -23 18 -23 19 0 23 -3 14 -9 -10 -6 0 -12 31 -22 25 -7 45
-18 44 -23 -1 -6 8 -11 21 -10 29 1 28 -14 -3 -50 -32 -37 -33 -66 -2 -66 17
0 26 -9 35 -33 17 -46 15 -67 -8 -112 -24 -47 -26 -80 -6 -72 20 8 25 -40 8
-76 -7 -15 -12 -33 -10 -40 3 -17 -12 -57 -22 -57 -6 0 -30 -52 -30 -66 0 -2
15 -1 32 1 23 3 39 -2 55 -17 24 -22 31 -48 13 -48 -5 0 -10 -9 -10 -20 0 -11
5 -20 11 -20 6 0 9 -9 6 -20 -6 -23 -6 -23 27 -9 14 7 45 38 70 70 86 110 228
206 385 259 164 55 451 49 451 -11 0 -12 10 -23 26 -29 36 -14 44 -13 44 10 0
31 13 25 75 -37 123 -123 241 -369 207 -429 -11 -17 -11 -17 -12 6 -1 50 -20
-4 -20 -57 0 -42 -4 -54 -20 -63 -11 -6 -20 -21 -20 -34 0 -35 -20 -84 -36
-90 -9 -3 -12 -1 -9 4 8 12 -15 13 -34 1 -8 -5 -11 -16 -7 -26 3 -10 9 -15 13
-12 9 10 43 -12 43 -28 0 -19 -24 -19 -40 0 -7 8 -20 15 -30 15 -10 0 -20 -7
-24 -15 -3 -8 -12 -15 -21 -15 -8 0 -15 -4 -15 -10 0 -5 -5 -10 -10 -10 -18 0
-80 -45 -80 -57 0 -19 7 -16 55 16 37 25 46 27 56 15 6 -8 18 -14 25 -14 24 0
15 -16 -19 -35 -24 -13 -44 -16 -73 -11 -21 3 -53 8 -70 11 -22 4 -33 1 -37
-9 -4 -10 -18 -13 -48 -11 -34 3 -42 0 -46 -16 -3 -10 -9 -19 -14 -19 -5 0 -6
-7 -3 -15 9 -22 33 -19 27 4 -7 26 36 41 49 17 5 -9 14 -14 19 -10 6 3 20 3
32 0 16 -4 22 -13 23 -36 1 -26 -1 -28 -15 -18 -9 7 -21 18 -28 26 -10 12 -15
11 -37 -5 -26 -18 -29 -41 -5 -35 8 2 6 -5 -6 -18 -17 -19 -26 -21 -73 -15
-29 4 -69 13 -87 21 -40 16 -45 17 -45 6 0 -11 66 -42 91 -42 35 0 91 -29 96
-50 3 -11 11 -20 18 -20 24 0 25 -29 2 -36 -12 -5 -25 -7 -29 -6 -5 1 -8 -5
-8 -13 0 -17 -25 -20 -35 -5 -8 12 -35 13 -35 1 0 -5 9 -11 20 -14 11 -3 20
-10 20 -16 0 -6 -6 -8 -14 -5 -7 3 -16 -2 -20 -11 -9 -24 3 -39 19 -25 10 8
15 6 20 -9 3 -12 10 -21 15 -21 5 0 16 -13 24 -29 14 -26 14 -30 0 -35 -22 -8
-40 4 -23 15 11 7 10 13 -7 30 -12 12 -27 18 -33 15 -17 -11 -13 -44 6 -54 14
-9 14 -10 -5 -16 -12 -4 -31 -21 -43 -38 -22 -30 -23 -30 -38 -11 -9 10 -25
23 -36 28 -20 8 -19 9 2 12 12 2 27 12 35 21 9 11 10 14 1 8 -9 -5 -13 -1 -13
13 0 24 -29 32 -51 14 -13 -11 -21 -5 -57 47 -23 32 -42 70 -42 85 0 14 -4 25
-10 25 -5 0 -10 7 -10 15 0 8 -4 15 -10 15 -5 0 -10 -4 -10 -10 0 -5 -9 -19
-20 -30 -12 -12 -18 -25 -15 -30 4 -6 13 -4 22 6 13 13 18 13 23 2 14 -25 0
-78 -20 -78 -5 0 -7 6 -5 13 6 14 -47 47 -75 47 -23 0 -70 -20 -70 -31 0 -4 7
-10 16 -13 8 -3 12 -10 9 -16 -3 -6 1 -13 10 -16 8 -4 20 -15 26 -26 8 -15 7
-22 -6 -32 -15 -11 -14 -13 9 -26 14 -7 26 -22 26 -32 0 -20 -1 -21 -24 -12
-9 3 -13 11 -9 17 4 6 0 8 -11 4 -10 -4 -19 -1 -22 8 -4 8 -10 13 -14 10 -5
-3 -16 2 -24 11 -9 8 -16 13 -16 10 0 -12 -87 57 -151 120 -67 65 -87 78 -70
47 11 -23 11 -75 -1 -90 -6 -7 -5 -14 2 -18 5 -3 10 -20 10 -37 0 -34 -3 -34
-113 -3 -70 19 -174 17 -169 -4 2 -8 0 -27 -3 -42 -6 -28 -8 -29 -48 -22 -38
6 -77 34 -58 41 11 4 -4 86 -28 156 -12 33 -21 66 -21 74 0 7 -6 28 -14 45
-46 106 -88 241 -121 387 -14 63 -28 123 -31 133 -4 12 0 17 15 17 11 0 23 5
27 11 4 7 0 9 -13 5 -11 -4 -66 -15 -123 -26 -82 -16 -106 -17 -112 -7 -6 9
-8 9 -8 -1 0 -8 -9 -10 -27 -6 -23 4 -25 3 -13 -6 12 -9 7 -11 -22 -8 -20 2
-35 1 -33 -2 2 -3 -44 -14 -103 -24 -59 -10 -120 -21 -136 -24 -20 -3 -27 -2
-22 6 5 8 -3 10 -26 6 -24 -5 -30 -4 -23 4 10 11 232 51 478 87 146 21 140 18
120 68 -9 23 -22 49 -30 58 -17 21 -17 39 2 39 13 0 13 3 3 20 -8 12 -15 15
-19 8 -11 -18 -42 0 -36 21 3 11 -2 29 -10 40 -15 23 -10 41 13 41 22 0 17 9
-35 69 -26 31 -60 79 -75 106 -19 35 -25 42 -21 23 6 -33 0 -36 -15 -8 -8 14
-8 26 1 41 6 12 7 19 2 16 -13 -8 -58 53 -58 80 -1 13 6 24 18 27 17 4 18 6 2
30 -12 17 -15 35 -10 56 4 17 3 36 -3 43 -13 18 -28 88 -24 120 2 19 9 27 24
27 11 0 22 8 25 19 7 28 46 42 85 30 37 -10 144 -12 199 -3 41 7 139 85 139
111 0 8 11 29 25 45 14 16 23 34 19 39 -8 14 3 11 44 -10z m1572 9 c0 -5 -4
-10 -10 -10 -5 0 -10 5 -10 10 0 6 5 10 10 10 6 0 10 -4 10 -10z m-2100 -44
c0 -8 -7 -16 -15 -20 -15 -5 -21 14 -8 27 11 12 23 8 23 -7z m-2213 -22 c-3
-3 -12 -4 -19 -1 -8 3 -5 6 6 6 11 1 17 -2 13 -5z m-59 -49 c-3 -3 -9 2 -12
12 -6 14 -5 15 5 6 7 -7 10 -15 7 -18z m4626 16 c16 -25 -42 -72 -76 -64 -21
5 -21 4 -9 37 7 16 20 26 38 29 15 2 31 5 35 6 4 0 9 -3 12 -8z m-4611 -36
c-3 -9 -8 -14 -10 -11 -3 3 -2 9 2 15 9 16 15 13 8 -4z m-29 -11 c4 -10 1 -14
-6 -12 -15 5 -23 28 -10 28 5 0 13 -7 16 -16z m-232 -19 c11 -14 24 -23 29
-19 5 3 12 -2 15 -11 5 -13 9 -13 22 -3 13 11 14 9 8 -17 -18 -78 -19 -78 21
13 19 44 33 32 33 -29 0 -27 3 -49 8 -49 13 0 32 38 26 53 -3 8 3 20 12 28 12
9 15 10 10 2 -4 -7 -3 -13 1 -13 11 0 40 -57 48 -95 3 -16 20 -66 37 -110 62
-162 74 -235 37 -223 -9 3 -13 17 -11 44 3 32 1 37 -9 27 -7 -7 -32 -13 -55
-13 -28 0 -44 -5 -48 -15 -3 -8 -12 -15 -21 -15 -17 0 -55 -35 -55 -50 0 -17
-15 -11 -39 14 -13 14 -29 22 -37 19 -10 -4 -14 3 -14 26 0 33 -27 55 -55 45
-9 -4 -15 -3 -14 2 2 10 -1 20 -41 112 -16 38 -26 77 -24 95 13 124 16 141 26
124 5 -9 7 -21 4 -26 -3 -5 0 -11 7 -14 10 -4 12 7 9 43 -3 41 0 50 20 64 29
20 27 21 50 -9z m4682 -7 c8 -13 4 -21 -17 -38 -29 -23 -37 -46 -12 -36 8 3
15 0 15 -7 0 -8 -16 -13 -41 -13 l-41 -1 7 36 c12 68 26 89 54 82 13 -4 29
-14 35 -23z m-4354 12 c10 -6 11 -10 3 -10 -7 0 -13 -4 -13 -10 0 -5 6 -7 13
-4 8 3 20 -2 27 -11 12 -15 10 -16 -16 -9 -16 4 -36 12 -44 19 -8 7 -22 15
-30 18 -13 5 -13 6 1 6 8 1 21 -5 28 -11 11 -11 13 -10 8 5 -7 19 1 22 23 7z
m3656 -70 c3 0 14 5 26 11 28 15 30 9 13 -46 -15 -52 -13 -67 10 -58 8 3 15 0
15 -5 0 -6 9 -14 21 -17 16 -5 18 -10 8 -21 -13 -16 -33 -19 -24 -4 3 6 -3 10
-14 10 -11 0 -26 9 -34 20 -8 11 -16 17 -19 14 -4 -3 -9 5 -13 18 -4 13 -10
25 -14 28 -13 11 -41 73 -41 92 0 19 3 18 30 -11 17 -17 33 -31 36 -31z m108
19 c2 -8 6 -27 11 -43 6 -23 4 -32 -10 -43 -22 -15 -25 -16 -43 -4 -13 8 -11
23 14 110 5 16 24 3 28 -20z m651 1 c3 -5 -3 -10 -14 -10 -12 0 -21 5 -21 10
0 6 6 10 14 10 8 0 18 -4 21 -10z m-4375 -26 c0 -2 -9 0 -20 6 -11 6 -20 13
-20 16 0 2 9 0 20 -6 11 -6 20 -13 20 -16z m3847 13 c9 -10 -18 -117 -29 -111
-4 3 -8 23 -8 45 0 22 -3 38 -7 36 -5 -3 -9 5 -9 18 -2 19 3 23 22 21 13 -2
27 -6 31 -9z m-3811 -53 c3 -34 2 -35 -11 -18 -18 23 -21 84 -4 67 7 -7 13
-28 15 -49z m4334 42 c0 -3 -4 -8 -10 -11 -5 -3 -10 -1 -10 4 0 6 5 11 10 11
6 0 10 -2 10 -4z m-5114 -54 c4 -21 3 -32 -5 -32 -6 0 -11 4 -11 9 0 5 -3 24
-6 42 -5 25 -4 31 4 24 7 -6 15 -25 18 -43z m190 -39 c4 -21 17 -56 30 -79 25
-43 31 -74 14 -74 -5 0 -10 5 -10 11 0 5 -5 7 -12 3 -7 -5 -8 -3 -4 5 5 7 1
20 -7 29 -13 16 -24 53 -33 115 -6 41 14 32 22 -10z m4904 22 c0 -8 -4 -15
-10 -15 -5 0 -7 7 -4 15 4 8 8 15 10 15 2 0 4 -7 4 -15z m-4840 -119 c0 -6 -7
-1 -15 10 -8 10 -15 23 -15 28 0 6 7 1 15 -10 8 -10 15 -23 15 -28z m4019 -55
c1 -8 -2 -11 -6 -8 -3 4 -12 2 -20 -4 -11 -9 -13 -1 -12 47 l0 59 19 -40 c10
-22 19 -46 19 -54z m-4174 69 c3 -6 -1 -13 -10 -16 -19 -8 -30 0 -20 15 8 14
22 14 30 1z m4957 -82 c-9 -9 -15 -9 -24 0 -9 9 -7 12 12 12 19 0 21 -3 12
-12z m228 -37 c0 -16 -6 -31 -15 -35 -8 -3 -15 -13 -15 -21 0 -9 -4 -13 -10
-10 -5 3 -10 1 -10 -4 0 -6 -4 -11 -10 -11 -5 0 -10 6 -10 14 0 7 -9 25 -20
39 -25 32 -60 26 -60 -10 0 -18 -4 -24 -15 -19 -9 3 -15 0 -15 -10 0 -9 -7
-14 -17 -12 -28 5 -26 26 6 42 20 11 28 21 25 31 -4 11 1 15 17 16 35 0 113
11 118 15 15 14 31 0 31 -25z m-5211 -24 c0 -27 -2 -29 -9 -12 -12 28 -12 57
0 50 6 -3 10 -21 9 -38z m4985 22 c-9 -14 -85 -51 -92 -44 -12 12 15 40 49 51
35 12 53 9 43 -7z m-4805 -82 c0 -10 -4 -15 -10 -12 -5 4 -8 12 -6 18 2 7 1
22 -4 33 -4 12 -5 25 -1 29 7 7 18 -32 21 -68z m5141 37 c-21 -21 -22 -27 -10
-35 13 -8 13 -11 -2 -23 -12 -9 -14 -16 -7 -23 17 -17 -27 -40 -88 -48 -29 -4
-53 -12 -53 -17 0 -7 18 -8 50 -4 57 8 120 -1 120 -16 0 -6 -6 -8 -14 -5 -8 3
-17 3 -20 0 -10 -10 -75 -12 -81 -2 -4 5 -11 6 -17 3 -22 -14 -90 -14 -104 0
-7 8 -19 16 -26 18 -21 7 3 28 33 28 24 0 29 4 29 25 0 27 9 32 27 14 9 -9 16
-8 28 5 9 9 20 16 24 16 4 0 18 10 31 23 22 20 90 66 99 67 3 0 -6 -11 -19
-26z m-1680 -14 c0 -5 -4 -10 -9 -10 -6 0 -13 5 -16 10 -3 6 1 10 9 10 9 0 16
-4 16 -10z m1477 -27 c-3 -10 -5 -4 -5 12 0 17 2 24 5 18 2 -7 2 -21 0 -30z
m-299 -5 c-17 -26 -43 -31 -43 -8 0 8 5 15 12 15 6 0 15 3 19 8 17 16 25 5 12
-15z m105 16 c9 -10 -34 -84 -49 -84 -21 0 -26 37 -8 65 15 24 43 33 57 19z
m-4650 -17 c3 -8 1 -20 -4 -28 -6 -10 -9 -7 -9 14 0 29 5 35 13 14z m4877 -7
c0 -5 -2 -10 -4 -10 -3 0 -8 5 -11 10 -3 6 -1 10 4 10 6 0 11 -4 11 -10z
m-2308 -42 c-4 -40 -16 -49 -26 -22 -4 11 24 69 30 61 1 -1 -1 -19 -4 -39z
m2188 11 c-7 -11 -14 -18 -17 -15 -3 3 0 12 7 21 18 21 23 19 10 -6z m-66 -5
c6 -15 -40 -91 -49 -82 -6 6 27 98 35 98 4 0 11 -7 14 -16z m-4780 -9 c3 -9 0
-15 -9 -15 -9 0 -12 6 -9 15 4 8 7 15 9 15 2 0 5 -7 9 -15z m-119 -35 c-3 -5
-10 -10 -16 -10 -5 0 -9 5 -9 10 0 6 7 10 16 10 8 0 12 -4 9 -10z m392 -29
c-5 -2 -13 3 -18 10 -15 24 -10 30 9 12 10 -10 14 -20 9 -22z m2390 -24 c1
-24 8 -61 15 -83 l14 -39 -55 4 -55 3 27 20 c30 22 34 40 12 61 -13 13 -11 19
13 46 15 16 27 30 27 31 0 0 1 -19 2 -43z m2033 28 c0 -8 -4 -15 -10 -15 -5 0
-10 7 -10 15 0 8 5 15 10 15 6 0 10 -7 10 -15z m140 -21 c0 -3 -16 -20 -36
-39 -29 -27 -36 -31 -41 -18 -4 10 4 25 21 40 25 21 56 31 56 17z m-94 -23
c-17 -18 -16 -21 21 -62 21 -24 32 -39 26 -35 -7 4 -13 5 -13 1 0 -10 47 -80
64 -94 9 -7 16 -20 16 -27 0 -8 3 -14 8 -14 4 0 15 -14 25 -31 18 -33 24 -94
7 -84 -6 4 -10 -8 -11 -27 0 -32 0 -33 -11 -8 -12 28 -77 210 -81 225 -1 5
-21 42 -43 81 -42 72 -43 94 -5 94 11 0 11 -4 -3 -19z m86 -43 c-6 -6 -15 -8
-19 -4 -4 4 -1 11 7 16 19 12 27 3 12 -12z m117 -4 c25 -18 91 -154 91 -188
-1 -21 -1 -21 -20 3 -11 13 -23 35 -26 50 -11 51 -15 58 -24 36 -8 -19 -8 -19
-18 5 -21 49 -13 -46 7 -99 11 -27 18 -51 16 -53 -3 -2 0 -21 6 -42 8 -29 18
-41 45 -52 26 -11 34 -20 34 -39 0 -16 4 -23 13 -19 15 6 83 -64 96 -99 5 -13
25 -44 45 -70 20 -27 34 -52 31 -57 -5 -9 -31 -17 -107 -35 -23 -6 -29 -2 -54
42 -45 80 -76 122 -87 120 -5 -1 -15 30 -22 70 -16 89 -37 153 -75 226 -27 52
-28 59 -15 84 8 14 17 51 21 80 3 29 9 53 13 53 4 0 17 -7 30 -16z m225 -3 c8
-12 -48 -22 -85 -14 -22 4 -27 8 -17 14 17 11 95 11 102 0z m-3499 -82 c-27
-5 -63 -11 -80 -13 -16 -2 -55 -13 -85 -23 -37 -13 -88 -20 -158 -22 -108 -3
-104 -4 -116 49 l-5 25 247 -4 c179 -3 233 -6 197 -12z m162 -11 c-3 -8 -6 -5
-6 6 -1 11 2 17 5 13 3 -3 4 -12 1 -19z m868 1 c4 -11 4 -23 1 -26 -3 -4 -6 2
-6 11 0 13 -7 17 -27 16 -53 -4 -83 0 -83 10 0 6 24 10 54 10 47 0 56 -3 61
-21z m2665 -47 c0 -5 9 -18 20 -30 14 -15 17 -22 7 -22 -15 0 -50 37 -60 63
-6 15 -4 16 13 7 11 -6 20 -14 20 -18z m-5460 -76 c0 -39 -6 -31 -14 19 -5 29
-4 36 3 25 6 -8 11 -28 11 -44z m-455 15 c3 -5 1 -12 -5 -16 -5 -3 -10 1 -10
9 0 18 6 21 15 7z m1911 -43 c-48 -60 -70 -78 -98 -78 -27 0 -28 2 -28 55 l0
55 76 0 76 0 -26 -32z m3688 16 c3 -8 2 -12 -4 -9 -6 3 -10 10 -10 16 0 14 7
11 14 -7z m-36 -37 c2 -10 -3 -17 -12 -17 -10 0 -16 9 -16 21 0 24 23 21 28
-4z m-5111 -19 c-3 -8 -6 -5 -6 6 -1 11 2 17 5 13 3 -3 4 -12 1 -19z m0 -50
c-3 -7 -5 -2 -5 12 0 14 2 19 5 13 2 -7 2 -19 0 -25z m77 23 c4 -5 -3 -7 -14
-4 -16 4 -20 0 -20 -18 0 -19 -2 -21 -10 -9 -5 9 -5 19 2 27 12 15 34 17 42 4z
m16 -36 c0 -8 -7 -15 -15 -15 -9 0 -12 6 -9 15 4 8 10 15 15 15 5 0 9 -7 9
-15z m1861 -15 c-13 -11 -28 -20 -35 -20 -6 0 3 9 19 20 38 25 47 25 16 0z
m483 11 c3 -5 -6 -12 -20 -15 -29 -8 -39 -3 -29 13 8 13 42 14 49 2z m-1079
-35 c-3 -11 -9 -41 -14 -66 -9 -44 -9 -43 -10 27 -1 60 1 71 14 67 9 -4 13
-14 10 -28z m4250 -17 c11 -16 4 -17 -45 -3 l-45 12 42 1 c23 1 45 -4 48 -10z
m-3985 -26 c0 -5 -5 -15 -10 -23 -8 -12 -10 -11 -10 8 0 12 5 22 10 22 6 0 10
-3 10 -7z m604 -2 c3 -5 -4 -11 -16 -14 -25 -7 -33 -3 -23 12 8 13 32 14 39 2z
m-227 -27 c-9 -9 -28 6 -21 18 4 6 10 6 17 -1 6 -6 8 -13 4 -17z m443 -15 c0
-6 -4 -7 -10 -4 -5 3 -10 11 -10 16 0 6 5 7 10 4 6 -3 10 -11 10 -16z m33 -46
c-7 -2 -19 -2 -25 0 -7 3 -2 5 12 5 14 0 19 -2 13 -5z m-1730 -43 c3 -11 1
-23 -4 -26 -5 -3 -9 6 -9 20 0 31 6 34 13 6z m4362 -17 c6 14 12 10 41 -25 50
-64 52 -85 10 -120 -20 -16 -36 -36 -36 -44 0 -8 -7 -14 -15 -14 -8 0 -18 0
-22 -1 -5 0 -15 10 -23 22 -8 13 -10 20 -4 16 12 -7 42 78 32 89 -3 3 -9 -11
-12 -32 -13 -67 -16 -28 -5 52 9 54 14 73 19 59 7 -18 8 -19 15 -2z m-3105
-48 c0 -8 -4 -15 -10 -15 -5 0 -7 7 -4 15 4 8 8 15 10 15 2 0 4 -7 4 -15z
m615 -25 c-10 -11 -23 -20 -29 -20 -6 0 0 9 14 20 32 25 38 25 15 0z m-2005
-14 c0 -3 -4 -8 -10 -11 -5 -3 -10 -1 -10 4 0 6 5 11 10 11 6 0 10 -2 10 -4z
m1130 0 c0 -11 -19 -15 -25 -6 -3 5 1 10 9 10 9 0 16 -2 16 -4z m121 -33 c-8
-15 -10 -15 -11 -2 0 17 10 32 18 25 2 -3 -1 -13 -7 -23z m3739 -13 c0 -4 -7
-13 -16 -21 -12 -10 -17 -10 -23 -1 -4 7 -14 10 -22 7 -10 -4 -15 1 -15 14 0
12 5 17 15 13 10 -4 13 -1 8 10 -5 14 -2 14 24 1 16 -8 29 -18 29 -23z m-4865
10 c-4 -12 0 -31 8 -44 25 -38 46 -95 38 -101 -5 -2 -21 21 -37 53 -15 31 -35
65 -43 75 -13 15 -12 17 7 17 12 0 22 5 22 10 0 6 3 10 6 10 3 0 2 -9 -1 -20z
m1845 16 c0 -2 -8 -10 -17 -17 -16 -13 -17 -12 -4 4 13 16 21 21 21 13z m2930
-6 c0 -5 -7 -10 -15 -10 -8 0 -15 5 -15 10 0 6 7 10 15 10 8 0 15 -4 15 -10z
m-5400 -30 c0 -5 -5 -10 -11 -10 -5 0 -7 5 -4 10 3 6 8 10 11 10 2 0 4 -4 4
-10z m1750 -16 c0 -8 -5 -12 -10 -9 -6 4 -8 11 -5 16 9 14 15 11 15 -7z m60
-14 c0 -5 -5 -10 -11 -10 -5 0 -7 5 -4 10 3 6 8 10 11 10 2 0 4 -4 4 -10z
m2597 -69 c-3 -10 -5 -8 -6 6 0 12 -6 25 -11 28 -6 4 -7 11 -4 17 9 14 26 -30
21 -51z m-3820 17 c-3 -8 -6 -5 -6 6 -1 11 2 17 5 13 3 -3 4 -12 1 -19z m150
-14 c-3 -3 -12 -4 -19 -1 -8 3 -5 6 6 6 11 1 17 -2 13 -5z m-260 -60 c-3 -3
-12 -4 -19 -1 -8 3 -5 6 6 6 11 1 17 -2 13 -5z m200 -36 c-3 -8 -6 -5 -6 6 -1
11 2 17 5 13 3 -3 4 -12 1 -19z m-202 -38 c3 -5 1 -10 -4 -10 -6 0 -11 5 -11
10 0 6 2 10 4 10 3 0 8 -4 11 -10z m3821 -77 c2 -16 6 -43 9 -60 5 -27 3 -32
-10 -27 -8 3 -16 16 -16 28 -1 11 -3 35 -4 51 -4 53 16 60 21 8z m-3727 13 c8
-9 10 -30 6 -58 -4 -24 -8 -53 -8 -65 -1 -13 -5 -23 -9 -23 -4 0 -6 -8 -6 -17
0 -10 -1 -22 -3 -28 -5 -17 12 -110 23 -116 14 -9 -13 -49 -33 -49 -19 0 -33
-40 -19 -54 4 -4 6 -15 3 -24 -5 -11 -3 -13 7 -7 10 6 12 4 7 -7 -3 -9 0 -22
6 -29 7 -8 8 -10 3 -6 -11 8 -38 -12 -31 -23 6 -10 -51 -21 -70 -14 -10 4 -13
13 -10 24 3 10 1 21 -4 24 -6 4 -8 13 -5 20 3 9 -9 19 -36 30 -37 15 -39 18
-28 36 7 11 20 22 28 25 15 5 18 25 22 145 1 25 6 48 11 52 6 3 11 36 13 72 1
36 5 70 9 76 18 29 104 40 124 16z m4333 -19 c-4 -31 -5 -33 -40 -28 -30 4
-32 6 -12 9 32 5 51 22 25 22 -17 0 -16 2 5 14 14 8 25 14 25 15 1 1 -1 -14
-3 -32z m-1072 -52 c0 -8 -4 -15 -10 -15 -5 0 -10 7 -10 15 0 8 5 15 10 15 6
0 10 -7 10 -15z m115 6 c3 -5 1 -12 -5 -16 -5 -3 -10 1 -10 9 0 18 6 21 15 7z
m916 -13 c4 -6 9 -6 13 1 11 16 36 13 36 -5 0 -8 -4 -13 -9 -10 -5 4 -11 1
-13 -5 -4 -13 -61 12 -74 32 -8 14 38 1 47 -13z m-1305 -13 c18 -14 18 -14 -8
-15 -18 0 -28 5 -28 15 0 19 11 19 36 0z m1273 -36 c-6 -11 -5 -20 1 -24 5 -3
10 -1 10 6 0 7 3 9 6 6 10 -10 -26 -59 -39 -54 -18 6 -35 -15 -29 -37 4 -13 1
-17 -9 -14 -8 3 -13 11 -11 18 1 7 -2 18 -7 24 -19 23 1 81 25 72 8 -3 11 0 8
8 -3 9 5 13 25 13 26 0 29 -3 20 -18z m-799 -9 c0 -5 -9 -10 -21 -10 -11 0
-17 5 -14 10 3 6 13 10 21 10 8 0 14 -4 14 -10z m-2789 -43 c-10 -9 -11 -8 -5
6 3 10 9 15 12 12 3 -3 0 -11 -7 -18z m2649 12 c11 -8 9 -9 -10 -3 -22 6 -23
5 -11 -10 15 -18 41 -22 41 -6 0 6 5 10 10 10 21 0 9 -28 -15 -32 -14 -3 -25
-1 -25 3 0 5 -7 9 -15 9 -8 0 -15 9 -15 20 0 22 17 26 40 9z m845 -79 c3 -5 1
-10 -4 -10 -6 0 -11 5 -11 10 0 6 2 10 4 10 3 0 8 -4 11 -10z m35 -20 c0 -5
-2 -10 -4 -10 -3 0 -8 5 -11 10 -3 6 -1 10 4 10 6 0 11 -4 11 -10z m-26 -15
c7 -19 -3 -19 -28 0 -19 15 -19 15 1 15 11 0 23 -7 27 -15z m-409 -15 c-28
-12 -37 -12 -30 0 3 6 16 10 28 9 21 0 21 -1 2 -9z m654 -56 c1 -16 -4 -41
-11 -55 -11 -25 -13 -25 -54 -11 l-42 14 46 58 c50 62 60 61 61 -6z m-884 46
l20 -9 -20 0 c-11 0 -27 4 -35 9 -13 9 -13 10 0 9 8 0 24 -4 35 -9z m89 -15
c3 -8 1 -15 -4 -15 -6 0 -10 7 -10 15 0 8 2 15 4 15 2 0 6 -7 10 -15z m-234
-55 c0 -5 -7 -7 -15 -4 -8 4 -15 8 -15 10 0 2 7 4 15 4 8 0 15 -4 15 -10z
m-3664 -24 c3 -8 15 -11 29 -9 16 4 26 -1 34 -15 8 -16 7 -19 -7 -18 -9 1 -27
7 -40 14 -25 15 -57 9 -47 -8 4 -6 12 -7 18 -3 7 3 4 -3 -6 -14 -14 -16 -15
-22 -4 -31 18 -15 66 -33 101 -38 36 -4 43 -11 28 -26 -8 -8 -15 -8 -24 0 -8
6 -45 16 -83 22 -79 13 -88 17 -81 36 7 19 -1 17 -24 -6 -11 -11 -33 -20 -51
-20 -49 0 -29 -24 27 -33 71 -11 80 -15 65 -30 -9 -9 -16 -9 -31 1 -10 6 -26
9 -33 6 -8 -3 -40 1 -70 9 -47 13 -57 13 -61 1 -3 -8 -14 -14 -25 -14 -11 0
-23 -5 -27 -11 -3 -6 -20 -9 -38 -6 -17 2 -38 1 -46 -3 -8 -4 -48 -9 -87 -12
-72 -4 -73 -4 -83 25 -5 16 -20 39 -32 50 -14 12 -19 21 -11 24 22 8 52 40 62
66 8 20 18 27 36 27 15 0 24 -3 22 -7 -5 -9 13 -11 124 -14 50 -2 73 2 79 11
5 9 47 16 122 22 62 4 120 10 128 12 27 7 31 6 36 -8z m-628 -19 c13 -16 5
-29 -29 -44 -22 -9 -26 -9 -26 5 0 18 25 52 37 52 4 0 12 -6 18 -13z m889 -19
c-3 -7 -5 -2 -5 12 0 14 2 19 5 13 2 -7 2 -19 0 -25z m3285 10 c93 -19 75 -45
-37 -50 -32 -2 -49 -7 -48 -15 2 -8 -11 -10 -43 -7 -72 6 -85 20 -26 28 49 6
79 25 54 34 -19 6 -3 22 20 22 12 0 48 -5 80 -12z m219 -5 c13 -16 12 -17 -3
-4 -10 7 -18 15 -18 17 0 8 8 3 21 -13z m-344 1 c-3 -3 -12 -4 -19 -1 -8 3 -5
6 6 6 11 1 17 -2 13 -5z m-127 -8 c0 -2 -13 -6 -30 -8 -16 -3 -30 -1 -30 4 0
4 14 8 30 8 17 0 30 -2 30 -4z m401 -19 c-10 -9 -11 -8 -5 6 3 10 9 15 12 12
3 -3 0 -11 -7 -18z m-3622 -12 c23 -22 7 -28 -41 -14 -53 16 -56 18 -38 30 18
11 60 3 79 -16z m3581 21 c0 -9 -30 -14 -35 -6 -4 6 3 10 14 10 12 0 21 -2 21
-4z m-10 -46 c0 -5 -4 -10 -9 -10 -6 0 -13 5 -16 10 -3 6 1 10 9 10 9 0 16 -4
16 -10z m-3650 -79 c0 -14 -18 -23 -30 -16 -6 4 -8 11 -5 16 8 12 35 12 35 0z
m82 -42 c-18 -17 -40 -29 -50 -27 -13 3 -7 10 23 30 54 36 67 35 27 -3z m-291
-9 c10 0 19 -6 19 -14 0 -24 -51 -35 -79 -17 -12 8 -13 12 -1 26 7 9 20 13 27
10 8 -3 23 -5 34 -5z m134 -2 c-11 -6 -22 -14 -25 -18 -3 -4 -15 -10 -27 -14
-36 -11 -28 12 10 28 40 18 71 21 42 4z m3810 -168 c8 -13 -45 -13 -65 0 -11
7 -6 10 22 10 20 0 40 -4 43 -10z m683 -57 c-10 -2 -28 -2 -40 0 -13 2 -5 4
17 4 22 1 32 -1 23 -4z"/>
<path d="M410 4220 c0 -5 5 -10 11 -10 5 0 7 5 4 10 -3 6 -8 10 -11 10 -2 0
-4 -4 -4 -10z"/>
<path d="M4025 2790 c-3 -5 -1 -10 4 -10 6 0 11 5 11 10 0 6 -2 10 -4 10 -3 0
-8 -4 -11 -10z"/>
<path d="M3403 2223 c35 -48 83 -91 91 -82 5 5 -109 129 -119 129 -4 0 9 -21
28 -47z"/>
<path d="M3553 2142 c26 -26 34 -41 27 -48 -14 -14 4 -62 31 -87 12 -11 19
-31 19 -55 0 -20 7 -45 14 -54 11 -15 12 -10 8 35 -3 35 -13 61 -28 80 -14 16
-24 42 -24 58 0 37 -24 85 -49 99 -36 19 -35 10 2 -28z"/>
<path d="M3410 2116 c0 -2 8 -10 18 -17 15 -13 16 -12 3 4 -13 16 -21 21 -21
13z"/>
<path d="M3467 2059 c21 -24 83 -65 83 -56 0 3 -24 22 -52 42 -35 25 -46 30
-31 14z"/>
<path d="M3661 1859 c0 -8 4 -23 8 -33 6 -16 9 -17 13 -5 3 8 0 23 -8 34 -10
13 -14 14 -13 4z"/>
<path d="M3780 1580 c-8 -5 -10 -10 -5 -10 6 0 17 5 25 10 8 5 11 10 5 10 -5
0 -17 -5 -25 -10z"/>
<path d="M3128 1483 c6 -2 18 -2 25 0 6 3 1 5 -13 5 -14 0 -19 -2 -12 -5z"/>
<path d="M3068 1473 c7 -3 16 -2 19 1 4 3 -2 6 -13 5 -11 0 -14 -3 -6 -6z"/>
<path d="M5133 1323 c-7 -2 -13 -14 -13 -24 0 -20 1 -20 29 -3 40 23 26 45
-16 27z"/>
<path d="M4957 1233 c-10 -16 11 -39 23 -27 8 8 7 14 -4 23 -8 7 -17 8 -19 4z"/>
<path d="M3930 1123 c0 -6 8 -17 18 -24 16 -13 16 -13 2 6 -8 11 -16 22 -17
24 -2 2 -3 0 -3 -6z"/>
<path d="M4577 1068 c8 -32 34 -60 51 -53 19 7 52 -13 52 -32 0 -9 3 -13 6
-10 14 14 -19 66 -49 78 -18 7 -36 19 -40 26 -13 21 -26 15 -20 -9z m53 -28
c0 -5 -5 -10 -11 -10 -5 0 -7 5 -4 10 3 6 8 10 11 10 2 0 4 -4 4 -10z"/>
<path d="M4330 1015 c7 -8 17 -15 22 -15 6 0 5 7 -2 15 -7 8 -17 15 -22 15 -6
0 -5 -7 2 -15z"/>
<path d="M3970 960 c0 -11 2 -20 4 -20 2 0 6 9 9 20 3 11 1 20 -4 20 -5 0 -9
-9 -9 -20z"/>
<path d="M4796 967 c3 -10 9 -15 12 -12 3 3 0 11 -7 18 -10 9 -11 8 -5 -6z"/>
<path d="M4520 920 c0 -5 5 -10 11 -10 5 0 7 5 4 10 -3 6 -8 10 -11 10 -2 0
-4 -4 -4 -10z"/>
<path d="M4430 780 c0 -5 5 -10 11 -10 5 0 7 5 4 10 -3 6 -8 10 -11 10 -2 0
-4 -4 -4 -10z"/>
<path d="M734 2455 c5 -11 12 -36 16 -55 l8 -35 1 41 c1 28 -5 46 -16 55 -15
12 -16 12 -9 -6z"/>
<path d="M5685 1520 c-3 -5 1 -10 9 -10 9 0 16 5 16 10 0 6 -4 10 -9 10 -6 0
-13 -4 -16 -10z"/>
<path d="M5661 1264 c0 -11 3 -14 6 -6 3 7 2 16 -1 19 -3 4 -6 -2 -5 -13z"/>
<path d="M1144 385 c21 -16 32 -13 21 4 -3 6 -14 11 -23 11 -15 -1 -15 -2 2
-15z"/>
<path d="M2102 4233 c2 -21 8 -27 22 -25 10 2 23 -2 27 -10 12 -18 11 -48 -1
-48 -5 0 -10 7 -10 16 0 11 -5 14 -16 10 -9 -3 -25 -6 -37 -7 l-22 0 23 -9
c30 -13 29 -40 -3 -40 -15 0 -25 -6 -25 -15 0 -8 -9 -19 -19 -25 -28 -15 -31
-13 -22 13 7 17 4 28 -13 46 -11 13 -15 21 -8 16 11 -6 12 -3 3 13 -14 26 -14
35 -1 27 6 -4 7 1 3 11 -6 15 -8 15 -24 -5 -15 -18 -16 -27 -7 -46 9 -19 7
-27 -7 -42 -18 -17 -18 -16 -12 20 5 35 -4 49 -18 27 -3 -5 -18 -10 -33 -10
-23 -1 -24 -2 -10 -11 11 -6 15 -16 11 -26 -5 -12 -2 -15 10 -10 10 4 22 -1
30 -13 7 -11 24 -23 38 -28 24 -9 24 -9 -8 -16 -31 -7 -32 -8 -17 -30 11 -18
12 -29 4 -51 -8 -21 -8 -30 1 -36 7 -4 9 -14 6 -23 -4 -10 -1 -16 7 -16 14 0
29 27 22 39 -2 3 18 6 45 6 40 0 50 -3 55 -20 4 -11 17 -30 30 -42 32 -29 31
-47 -1 -39 -28 7 -33 -5 -10 -24 18 -15 19 -14 37 21 11 21 18 25 36 18 15 -6
22 -17 22 -34 0 -18 5 -25 20 -25 20 0 19 20 -3 48 -6 8 -6 12 1 12 6 0 17 3
26 6 12 5 16 0 16 -19 0 -43 32 -64 93 -59 9 1 17 -3 17 -8 0 -5 14 -8 30 -6
17 2 33 0 36 -5 3 -5 -1 -9 -8 -10 -33 -2 -63 -10 -66 -19 -7 -19 -24 -10 -19
10 3 11 0 20 -6 20 -7 0 -23 3 -37 6 -22 4 -21 3 5 -10 17 -8 24 -15 16 -15
-10 -1 -7 -7 8 -20 27 -24 20 -46 -10 -31 -11 6 -23 9 -28 6 -12 -8 -81 13
-81 24 0 6 -9 10 -20 10 -13 0 -20 -7 -20 -20 0 -27 -13 -25 -46 5 -15 14 -33
25 -39 25 -17 0 -28 30 -16 44 6 6 7 17 3 22 -8 13 -103 14 -96 2 3 -4 16 -8
30 -8 27 0 28 -3 14 -31 -12 -22 -35 -26 -26 -4 4 12 -2 15 -27 14 -25 -1 -27
-3 -9 -6 15 -3 22 -10 18 -18 -6 -16 18 -27 39 -19 12 5 15 -6 15 -62 1 -67
14 -104 38 -104 6 0 18 -10 28 -22 11 -16 15 -17 11 -5 -8 23 8 22 33 -3 11
-11 25 -20 30 -20 6 0 10 -4 10 -10 0 -5 -6 -8 -12 -6 -49 16 -68 16 -68 1 0
-13 12 -15 60 -13 33 1 60 5 60 9 0 12 49 16 60 5 8 -8 15 -6 25 8 10 13 22
17 40 14 14 -3 25 -4 25 -3 0 1 -7 22 -15 45 -8 23 -15 46 -15 51 0 5 7 9 15
9 8 0 15 4 15 9 0 9 60 34 67 27 2 -2 6 -14 8 -27 7 -37 27 -69 38 -62 6 4 7
1 2 -6 -5 -9 -10 -10 -18 -2 -11 11 -50 15 -59 6 -3 -3 -2 -22 1 -42 5 -31 10
-37 30 -37 14 0 26 5 29 12 2 7 -6 12 -22 12 -20 0 -26 5 -26 21 0 14 5 19 14
16 8 -3 32 -9 53 -13 21 -4 43 -9 48 -13 10 -6 16 -7 48 -9 27 -3 21 -39 -8
-44 -13 -3 -22 -2 -20 3 3 4 1 10 -5 14 -5 3 -10 -3 -10 -14 0 -13 -7 -22 -17
-23 -35 -3 -68 4 -76 15 -5 7 -6 4 -3 -8 14 -60 17 -85 8 -85 -6 0 -12 5 -14
11 -2 5 -23 13 -47 16 -37 5 -43 4 -38 -9 3 -9 0 -24 -8 -35 -19 -27 -21 -55
-7 -80 12 -21 11 -23 -12 -23 -13 0 -26 -4 -28 -10 -5 -17 -47 1 -55 24 -4 11
-6 24 -5 28 1 5 -3 7 -10 5 -6 -1 -18 20 -27 46 -12 38 -12 52 -3 68 15 23 15
32 1 24 -5 -4 -14 -17 -19 -29 -8 -21 -10 -22 -102 -11 -109 12 -140 31 -127
79 7 24 1 34 -40 79 -27 29 -62 66 -77 83 -34 36 -79 51 -97 31 -18 -19 -37
-50 -43 -69 -4 -10 -10 -18 -14 -18 -4 0 -6 -16 -5 -36 1 -20 -4 -48 -11 -63
-18 -34 -18 -77 1 -85 24 -9 17 -24 -12 -29 -27 -4 -27 -4 4 -6 17 0 34 -7 37
-13 5 -10 7 -10 12 0 10 22 26 13 20 -12 -3 -14 -2 -28 4 -31 5 -3 10 2 11 12
0 10 3 13 6 6 2 -8 22 -13 44 -13 21 0 39 -4 39 -10 0 -5 -5 -10 -12 -10 -18
0 0 -14 24 -17 12 -2 29 -1 38 3 26 11 61 10 68 -2 4 -7 18 -14 32 -16 23 -3
25 -7 25 -55 0 -28 3 -55 8 -59 12 -12 8 -22 -10 -27 -14 -4 -13 -5 4 -6 12 0
27 -10 34 -22 7 -14 17 -19 30 -16 13 3 23 -2 30 -15 8 -14 18 -19 34 -15 20
3 25 -1 30 -25 4 -16 13 -32 21 -35 8 -3 11 -9 8 -14 -3 -5 -10 -7 -15 -4 -5
4 -9 -14 -9 -41 0 -44 -1 -46 -22 -39 -39 12 -108 15 -108 4 0 -5 8 -26 19
-47 10 -20 21 -54 25 -75 4 -20 18 -59 32 -86 13 -28 23 -56 22 -63 -2 -10 10
-12 47 -10 45 2 54 7 87 45 21 23 38 48 38 55 0 6 6 12 13 12 8 0 8 3 -2 9
-11 7 -10 10 5 14 15 4 15 5 2 6 -17 1 -44 61 -27 61 5 0 9 5 9 10 0 6 -10 10
-23 10 -12 0 -33 7 -45 16 -14 10 -22 11 -22 3 0 -6 -7 -9 -15 -6 -17 7 -30
-9 -15 -18 6 -4 17 -2 25 5 11 9 16 7 24 -7 12 -24 -1 -46 -25 -41 -26 4 -43
28 -44 59 0 26 1 26 60 22 37 -2 60 0 60 7 0 5 -9 10 -21 10 -21 0 -21 0 2 25
13 13 35 25 48 25 20 0 22 -3 17 -27 -5 -25 -5 -26 5 -9 9 14 9 24 0 37 -6 11
-10 31 -10 46 1 17 3 21 6 11 5 -18 39 -24 58 -10 6 4 11 36 11 71 1 41 6 66
15 71 7 5 14 25 15 45 1 30 9 44 45 77 40 37 42 41 24 49 -19 7 -19 8 3 8 14
1 20 5 17 12 -4 5 -12 8 -18 6 -14 -4 -56 34 -42 39 61 24 120 62 120 77 0 10
7 22 16 27 23 13 13 69 -15 80 -11 5 -16 9 -11 9 6 1 -2 11 -16 24 -14 12 -29
32 -33 44 -6 18 -3 23 16 27 13 3 32 7 43 9 13 3 9 5 -11 6 -16 0 -39 8 -50
17 -16 13 -16 15 -1 10 9 -3 17 -1 17 5 0 6 -8 13 -18 16 -10 2 -24 19 -30 37
-16 44 -15 46 11 46 16 0 18 -3 9 -9 -11 -6 -10 -9 5 -13 15 -4 18 1 19 31 0
20 -5 41 -12 46 -7 6 -16 22 -19 36 -5 21 -1 27 21 38 21 9 30 9 38 0 8 -8 8
-13 -1 -16 -20 -7 -15 -40 8 -56 12 -9 16 -17 10 -21 -18 -12 9 -54 39 -60 28
-5 43 -29 44 -71 1 -11 5 -26 9 -32 6 -9 0 -13 -20 -14 l-28 0 25 -11 c24 -10
24 -10 5 -19 -14 -7 -6 -8 28 -4 50 5 96 31 97 53 0 10 3 10 15 -2 19 -19 19
-27 -1 -19 -12 4 -15 1 -12 -13 2 -10 10 -18 17 -16 7 1 10 -2 6 -8 -3 -6 -10
-8 -14 -6 -4 3 -13 1 -21 -4 -11 -7 -10 -11 3 -25 21 -21 22 -39 2 -31 -18 6
-19 1 -5 -25 6 -10 21 -19 34 -19 l24 0 -19 36 c-19 38 -17 62 4 47 17 -12 62
-10 62 2 0 6 -6 9 -12 9 -7 -1 -10 2 -7 7 3 5 0 9 -5 9 -6 0 -11 -5 -11 -11 0
-5 -5 -7 -12 -3 -7 5 -2 15 17 30 16 13 32 21 37 18 19 -12 6 45 -16 67 -24
25 -46 61 -46 76 0 5 14 17 31 27 24 14 30 24 26 42 -2 13 0 24 4 24 5 0 9 5
9 10 0 12 13 29 50 65 26 26 56 33 62 14 2 -5 11 -7 21 -4 9 4 14 11 11 16 -3
5 4 9 15 9 12 0 21 -4 21 -9 0 -5 11 -11 25 -13 14 -3 25 -1 25 4 0 5 7 2 17
-7 11 -11 24 -15 42 -10 14 3 36 6 49 6 12 -1 22 4 22 9 0 6 -13 10 -29 10
-31 0 -45 18 -30 41 14 22 11 25 -26 36 -35 11 -42 5 -36 -31 3 -13 -20 -36
-35 -36 -12 0 -11 5 3 26 13 20 14 30 5 44 -10 16 -8 19 16 23 26 4 26 4 5 12
-29 9 -31 45 -3 45 11 0 20 -4 20 -10 0 -5 12 -10 26 -10 20 0 25 4 20 16 -3
8 -2 13 3 9 5 -3 11 -2 14 2 2 5 2 2 0 -6 -4 -18 14 -31 44 -31 16 0 21 -4 17
-15 -4 -8 -2 -15 4 -15 6 0 9 -11 7 -25 -1 -15 3 -25 10 -25 7 0 23 -16 36
-35 13 -19 29 -35 35 -35 6 0 17 -7 24 -15 7 -8 21 -15 31 -15 33 0 18 -76
-22 -113 -21 -19 -25 -37 -9 -37 6 0 10 -5 10 -11 0 -6 7 -17 15 -25 8 -9 15
-24 15 -35 0 -21 10 -25 27 -8 13 13 5 59 -11 59 -6 0 -4 5 4 10 13 8 12 10
-2 10 -12 0 -18 8 -18 23 0 28 11 42 30 42 10 0 17 15 21 50 5 41 2 60 -17
103 -14 28 -29 52 -34 52 -14 0 -12 -17 3 -23 9 -4 9 -6 0 -6 -6 -1 -19 9 -27
21 l-16 22 0 -23 c0 -20 -2 -22 -15 -11 -9 8 -12 16 -6 19 5 3 12 27 16 54 4
26 12 50 18 54 6 4 32 6 57 5 l45 -3 -24 19 -24 19 29 8 c46 12 65 13 102 1
29 -9 36 -7 48 9 8 10 14 23 14 27 0 5 -109 8 -241 7 -193 -2 -238 -5 -225
-15 10 -7 33 -10 54 -7 34 5 38 3 39 -18 1 -13 -1 -19 -5 -14 -4 6 -20 12 -35
13 -22 3 -30 -1 -34 -17 -5 -20 -25 -23 -50 -8 -6 4 -14 1 -16 -5 -3 -8 -6 -6
-6 5 -1 13 -10 17 -38 18 -37 0 -38 0 -15 16 12 8 22 19 22 23 0 5 -168 8
-374 8 -302 1 -377 -2 -386 -13 -16 -19 -123 -18 -116 1 4 11 -9 14 -60 14
l-65 0 3 -27z m273 -12 c7 -12 -12 -24 -25 -16 -11 7 -4 25 10 25 5 0 11 -4
15 -9z m30 -1 c3 -5 1 -10 -4 -10 -6 0 -11 5 -11 10 0 6 2 10 4 10 3 0 8 -4
11 -10z m-92 -10 c9 0 17 -4 17 -9 0 -6 -9 -8 -20 -6 -12 2 -28 1 -36 -2 -12
-4 -12 -8 -2 -21 11 -13 10 -15 -6 -9 -15 6 -17 3 -14 -11 6 -20 -20 -42 -49
-42 -15 0 -16 -2 -3 -10 8 -5 25 -7 36 -4 26 7 37 -6 23 -26 -9 -12 -11 -13
-16 -1 -4 9 -7 10 -13 2 -10 -17 -60 4 -60 26 -1 17 -1 17 -11 0 -6 -9 -14
-15 -20 -12 -5 4 -9 -1 -9 -9 0 -9 5 -16 11 -16 8 0 8 -4 0 -14 -6 -8 -10 -20
-9 -27 5 -23 -39 -22 -52 1 -14 26 -4 43 22 37 18 -5 19 -4 4 12 -22 24 -20
31 8 31 20 0 23 4 19 23 -3 12 -3 19 1 15 12 -10 66 12 66 27 0 22 52 57 75
51 11 -3 28 -6 38 -6z m450 3 c-7 -2 -21 -2 -30 0 -10 3 -4 5 12 5 17 0 24 -2
18 -5z m257 -13 c0 -5 -4 -10 -10 -10 -5 0 -10 5 -10 10 0 6 5 10 10 10 6 0
10 -4 10 -10z m397 -6 c-3 -3 -12 -4 -19 -1 -8 3 -5 6 6 6 11 1 17 -2 13 -5z
m-147 -14 c-20 -13 -33 -13 -25 0 3 6 14 10 23 10 15 0 15 -2 2 -10z m-838
-21 c-14 -14 -72 -14 -72 -1 0 4 18 7 40 7 22 0 36 -3 32 -6z m268 -9 c0 -5
-5 -10 -11 -10 -5 0 -7 5 -4 10 3 6 8 10 11 10 2 0 4 -4 4 -10z m205 0 c3 -5
1 -10 -4 -10 -6 0 -11 5 -11 10 0 6 2 10 4 10 3 0 8 -4 11 -10z m355 -5 c0 -8
-7 -15 -15 -15 -16 0 -20 12 -8 23 11 12 23 8 23 -8z m-1250 -50 c0 -5 -5 -3
-10 5 -5 8 -10 20 -10 25 0 6 5 3 10 -5 5 -8 10 -19 10 -25z m557 29 c-3 -3
-12 -4 -19 -1 -8 3 -5 6 6 6 11 1 17 -2 13 -5z m66 -44 c-8 -8 -33 32 -27 42
4 6 12 -1 18 -14 7 -12 11 -25 9 -28z m305 38 c15 -15 16 -38 2 -38 -5 0 -10
5 -10 11 0 7 -8 18 -17 25 -15 11 -16 13 -2 14 8 0 20 -5 27 -12z m-653 -8
c-3 -5 -10 -10 -16 -10 -5 0 -9 5 -9 10 0 6 7 10 16 10 8 0 12 -4 9 -10z m115
1 c0 -5 -9 -7 -20 -4 -11 3 -20 7 -20 9 0 2 9 4 20 4 11 0 20 -4 20 -9z m327
-6 c0 -8 -4 -12 -9 -9 -5 3 -6 10 -3 15 9 13 12 11 12 -6z m-397 -5 c0 -5 -2
-10 -4 -10 -3 0 -8 5 -11 10 -3 6 -1 10 4 10 6 0 11 -4 11 -10z m250 0 c0 -5
-4 -10 -10 -10 -5 0 -10 5 -10 10 0 6 5 10 10 10 6 0 10 -4 10 -10z m484 -5
c-4 -8 -11 -12 -16 -9 -6 4 -5 10 3 15 19 12 19 11 13 -6z m-239 -15 c3 -5 1
-10 -4 -10 -6 0 -11 5 -11 10 0 6 2 10 4 10 3 0 8 -4 11 -10z m-248 -6 c-3 -3
-12 -4 -19 -1 -8 3 -5 6 6 6 11 1 17 -2 13 -5z m743 -14 c0 -5 -5 -10 -11 -10
-5 0 -7 5 -4 10 3 6 8 10 11 10 2 0 4 -4 4 -10z m-1077 -14 c20 0 23 -14 3
-22 -7 -3 -29 4 -47 16 l-34 21 30 -8 c17 -4 38 -7 48 -7z m280 7 c-7 -2 -19
-2 -25 0 -7 3 -2 5 12 5 14 0 19 -2 13 -5z m-467 -18 c10 -8 14 -15 7 -15 -6
0 -18 -3 -26 -6 -9 -3 -16 3 -20 15 -6 25 11 27 39 6z m907 -32 c-3 -7 -9 -13
-13 -13 -14 0 -22 20 -16 36 5 12 8 13 20 2 7 -7 11 -19 9 -25z m-960 20 c-7
-2 -19 -2 -25 0 -7 3 -2 5 12 5 14 0 19 -2 13 -5z m1177 -3 c0 -5 -4 -10 -9
-10 -6 0 -13 5 -16 10 -3 6 1 10 9 10 9 0 16 -4 16 -10z m254 -7 c-5 -5 -11
-12 -15 -16 -3 -4 -12 -1 -19 8 -11 13 -9 15 15 15 16 0 24 -3 19 -7z m-1404
-18 c0 5 3 6 6 2 9 -9 -18 -32 -38 -33 -10 -1 -18 2 -18 7 0 5 7 9 16 9 11 0
14 5 10 16 -5 14 -4 15 9 4 8 -7 15 -9 15 -5z m165 -14 c3 -5 1 -12 -5 -16 -5
-3 -10 1 -10 9 0 18 6 21 15 7z m95 -25 c0 -6 -10 -17 -21 -25 -19 -11 -21
-11 -16 3 4 10 1 16 -9 16 -8 0 -13 4 -10 9 8 13 56 10 56 -3z m-140 -27 c0
-5 9 -18 21 -30 11 -11 18 -23 16 -26 -10 -10 -67 60 -67 83 0 3 7 1 15 -6 8
-7 15 -16 15 -21z m337 25 c-3 -3 -12 -4 -19 -1 -8 3 -5 6 6 6 11 1 17 -2 13
-5z m-131 -19 c4 -8 12 -15 20 -15 8 0 11 6 8 15 -4 10 0 15 15 15 12 0 21 -4
21 -10 0 -5 -5 -10 -12 -10 -6 0 0 -13 15 -28 15 -15 27 -33 27 -39 0 -20 -32
-24 -58 -7 -23 15 -47 15 -84 -1 -14 -5 -18 -2 -18 14 0 15 -7 21 -22 22 -21
1 -21 2 -3 6 11 3 24 9 30 14 5 5 18 9 30 10 11 0 14 3 8 6 -18 7 -16 23 2 23
9 0 18 -7 21 -15z m94 5 c0 -5 -5 -10 -11 -10 -5 0 -7 5 -4 10 3 6 8 10 11 10
2 0 4 -4 4 -10z m210 -46 c0 -8 -4 -12 -10 -9 -5 3 -10 10 -10 16 0 5 5 9 10
9 6 0 10 -7 10 -16z m-167 -1 c-7 -2 -19 -2 -25 0 -7 3 -2 5 12 5 14 0 19 -2
13 -5z m42 -63 c3 -5 -1 -10 -9 -10 -8 0 -18 5 -21 10 -3 6 1 10 9 10 8 0 18
-4 21 -10z m255 -86 c0 -2 -11 -4 -25 -4 -14 0 -25 4 -25 9 0 4 11 6 25 3 14
-2 25 -6 25 -8z m60 -20 c0 -8 5 -14 10 -14 6 0 10 -6 10 -12 -1 -7 -10 -2
-20 11 -21 25 -27 46 -10 36 6 -3 10 -13 10 -21z m-360 6 c0 -5 -7 -7 -15 -4
-8 4 -15 8 -15 10 0 2 7 4 15 4 8 0 15 -4 15 -10z m233 -29 c-2 -11 2 -21 8
-21 5 0 8 4 5 9 -4 5 3 7 14 4 21 -6 28 -23 9 -23 -7 0 -18 -8 -25 -17 -12
-16 -13 -16 -14 -2 0 9 -6 19 -14 22 -7 3 -12 16 -11 29 3 31 3 30 18 25 6 -2
11 -14 10 -26z m-259 13 c9 -3 16 -13 16 -21 0 -8 4 -12 9 -8 5 3 12 1 16 -5
10 -16 -31 -12 -45 5 -7 8 -19 15 -27 15 -8 0 -11 5 -8 10 7 12 17 12 39 4z
m61 -104 c4 -6 -5 -10 -24 -8 -17 1 -31 6 -31 10 0 12 48 10 55 -2z m15 -40
c0 -5 -2 -10 -4 -10 -3 0 -8 5 -11 10 -3 6 -1 10 4 10 6 0 11 -4 11 -10z
m-822 -125 c-3 -3 -9 2 -12 12 -6 14 -5 15 5 6 7 -7 10 -15 7 -18z m225 -47
c-3 -18 -12 -46 -19 -63 l-12 -30 -1 36 c-1 35 18 89 31 89 4 0 5 -15 1 -32z
m212 -28 c3 -5 13 -7 23 -4 11 4 9 -2 -8 -16 -21 -19 -25 -20 -28 -6 -2 9 -8
16 -13 16 -6 0 -7 -9 -4 -20 5 -15 2 -20 -10 -20 -12 0 -15 5 -11 16 3 9 6 21
6 28 0 14 37 19 45 6z m-327 -6 c32 -9 27 -24 -8 -24 -20 0 -30 5 -30 15 0 17
4 18 38 9z m398 -72 c10 -6 13 -12 6 -16 -18 -11 -56 -8 -97 8 -24 9 -32 15
-20 16 11 0 33 9 50 20 29 19 30 19 37 1 4 -11 14 -24 24 -29z m-101 -32 c3
-5 -1 -10 -10 -10 -9 0 -13 5 -10 10 3 6 8 10 10 10 2 0 7 -4 10 -10z m118
-17 c-7 -2 -19 -2 -25 0 -7 3 -2 5 12 5 14 0 19 -2 13 -5z m-118 -33 c-12 -56
-34 -88 -55 -83 -26 7 -26 19 0 26 13 3 18 10 14 21 -4 10 -1 16 7 16 9 1 7 6
-6 17 -20 15 -20 15 3 10 15 -3 22 -1 22 9 0 8 5 14 11 14 7 0 8 -11 4 -30z
m25 -24 c0 -14 -8 -27 -17 -31 -15 -5 -16 -4 -5 6 6 7 12 21 12 31 0 10 2 18
5 18 3 0 5 -11 5 -24z m100 15 c0 -4 -11 -6 -25 -3 -14 2 -25 6 -25 8 0 2 11
4 25 4 14 0 25 -4 25 -9z m-32 -35 c3 -3 -6 -6 -21 -6 -14 0 -28 4 -31 9 -6 9
42 6 52 -3z m122 0 c0 -16 -18 -31 -27 -22 -8 8 5 36 17 36 5 0 10 -6 10 -14z
m-150 -37 c0 -5 -7 -9 -15 -9 -8 0 -15 7 -15 15 0 9 6 12 15 9 8 -4 15 -10 15
-15z m77 -22 c10 -11 -30 -8 -47 3 -11 7 -8 8 13 6 15 -1 30 -6 34 -9z m-44
-21 c15 -12 15 -15 2 -26 -8 -7 -15 -19 -15 -26 0 -8 -4 -14 -10 -14 -5 0 -10
13 -10 30 0 23 4 28 18 24 9 -3 6 2 -8 10 -15 9 -19 15 -10 15 8 0 23 -6 33
-13z m-76 -2 c-3 -3 -12 -4 -19 -1 -8 3 -5 6 6 6 11 1 17 -2 13 -5z m133 -14
c8 -5 11 -10 5 -10 -5 0 -17 5 -25 10 -8 5 -10 10 -5 10 6 0 17 -5 25 -10z
m-10 -36 c0 -8 -9 -14 -20 -14 -17 0 -19 3 -8 19 13 21 28 19 28 -5z m30 -24
c0 -5 -5 -10 -11 -10 -5 0 -7 5 -4 10 3 6 8 10 11 10 2 0 4 -4 4 -10z m16 -26
c-4 -9 -9 -15 -11 -12 -3 3 -3 13 1 22 4 9 9 15 11 12 3 -3 3 -13 -1 -22z
m-81 -42 c-8 -8 -25 10 -19 20 4 6 9 5 15 -3 4 -7 6 -15 4 -17z m25 13 c0 -8
-2 -15 -4 -15 -2 0 -6 7 -10 15 -3 8 -1 15 4 15 6 0 10 -7 10 -15z m-13 -51
c-3 -3 -12 -4 -19 -1 -8 3 -5 6 6 6 11 1 17 -2 13 -5z m-52 -144 c-3 -5 -11
-10 -16 -10 -6 0 -7 5 -4 10 3 6 11 10 16 10 6 0 7 -4 4 -10z"/>
<path d="M4020 4251 c0 -15 -32 -22 -46 -10 -11 9 -14 8 -14 -5 0 -12 -7 -14
-30 -9 -33 6 -43 -12 -11 -22 19 -6 35 -69 22 -90 -3 -5 -6 -17 -6 -25 0 -9
-10 -15 -24 -15 -14 0 -27 -7 -29 -14 -3 -8 0 -11 7 -7 6 4 11 1 11 -7 0 -8
10 -17 23 -20 12 -4 31 -13 42 -22 19 -15 17 -16 -25 -9 -25 3 -59 12 -77 19
-36 15 -52 0 -24 -22 14 -11 12 -12 -11 -13 -16 0 -28 -4 -28 -10 0 -5 7 -7
15 -4 10 4 13 2 10 -8 -4 -9 0 -15 10 -15 8 0 15 6 15 14 0 7 4 13 10 13 5 0
9 -10 7 -22 -1 -17 4 -24 21 -26 16 -2 22 -8 18 -18 -3 -8 1 -14 9 -14 10 0
15 10 15 28 0 31 38 61 60 47 9 -5 10 -1 5 15 -4 14 -3 20 3 16 5 -3 15 1 22
9 7 8 17 12 23 8 21 -13 87 -11 87 3 0 16 16 19 24 5 4 -5 0 -12 -6 -14 -8 -4
-7 -6 3 -6 9 -1 20 -8 23 -17 8 -21 0 -30 -16 -17 -22 17 -47 23 -53 12 -4 -5
-1 -8 7 -7 7 2 14 -7 16 -19 2 -13 -1 -23 -7 -23 -5 0 -9 -13 -9 -30 1 -23 6
-30 21 -30 16 0 19 6 15 40 -3 35 -1 40 17 40 24 0 59 -23 98 -64 33 -35 24
-50 -28 -49 -43 1 -44 -9 -6 -36 36 -26 41 -26 41 -1 0 16 5 19 24 14 13 -3
27 -1 30 5 4 6 1 9 -7 5 -10 -4 -14 3 -13 25 1 22 6 31 19 31 10 0 17 8 17 20
0 11 -3 19 -7 18 -5 0 -17 3 -27 7 -19 8 -19 9 0 15 27 10 56 0 50 -16 -6 -16
13 -64 26 -64 4 0 8 -11 8 -25 0 -14 5 -25 10 -25 6 0 10 -7 10 -15 0 -8 9
-15 20 -15 11 0 20 5 20 10 0 14 37 12 43 -2 3 -7 6 -3 6 10 1 12 -4 22 -10
22 -18 0 -37 31 -31 52 2 10 13 23 23 29 16 8 19 6 19 -16 0 -14 5 -25 11 -25
5 0 7 -4 4 -10 -11 -18 25 -58 58 -63 53 -8 67 13 67 100 0 67 -9 89 -25 63
-3 -5 -14 -10 -23 -10 -10 0 -26 -9 -35 -21 -10 -11 -21 -18 -25 -14 -4 3 1
11 11 17 13 7 15 13 7 22 -12 16 -6 76 12 114 14 29 66 47 55 19 -3 -9 0 -20
7 -27 21 -16 26 9 26 116 l0 95 -142 -2 c-79 -1 -154 -6 -167 -11 -16 -5 -28
-5 -35 2 -16 16 -46 12 -46 -7 -1 -17 -1 -17 -14 0 -11 14 -30 17 -120 17 -58
0 -106 -4 -106 -9z m275 -10 c3 -5 1 -12 -5 -16 -5 -3 -10 1 -10 9 0 18 6 21
15 7z m-78 -7 c-3 -3 -12 -4 -19 -1 -8 3 -5 6 6 6 11 1 17 -2 13 -5z m203 -16
c0 -7 -4 -19 -9 -27 -8 -12 -12 -12 -24 -2 -9 7 -21 11 -29 11 -7 -1 -24 2
-38 6 -24 8 -24 9 10 15 60 11 90 10 90 -3z m-165 -118 c3 -6 -1 -7 -9 -4 -18
7 -21 14 -7 14 6 0 13 -4 16 -10z m-15 -64 c0 -3 -4 -8 -10 -11 -5 -3 -10 -1
-10 4 0 6 5 11 10 11 6 0 10 -2 10 -4z m50 -51 c19 -14 32 -25 29 -26 -55 -10
-59 -9 -69 16 -17 45 -9 46 40 10z m220 -14 c-12 -24 -32 -29 -24 -6 4 8 10
15 15 15 5 0 9 8 10 18 0 9 3 12 5 5 3 -7 0 -21 -6 -32z m-585 -11 c0 -8 -9
-16 -20 -18 -15 -2 -21 3 -21 18 0 15 6 20 21 18 11 -2 20 -10 20 -18z"/>
<path d="M480 4230 c0 -5 5 -10 11 -10 5 0 7 5 4 10 -3 6 -8 10 -11 10 -2 0
-4 -4 -4 -10z"/>
<path d="M1003 4156 c-12 -14 -7 -26 9 -26 5 0 6 5 3 10 -3 6 -1 10 4 10 6 0
11 5 11 10 0 14 -13 12 -27 -4z"/>
<path d="M1355 4130 c-4 -6 -11 -8 -16 -5 -5 4 -9 0 -9 -7 0 -8 9 -14 20 -15
14 -1 20 4 20 18 0 21 -5 24 -15 9z"/>
<path d="M3746 4026 c-26 -52 -26 -82 -2 -98 15 -10 46 10 40 26 -3 7 4 30 15
50 26 45 26 40 -3 59 -24 16 -24 16 -50 -37z"/>
<path d="M3505 3970 c-3 -5 -1 -10 4 -10 6 0 11 5 11 10 0 6 -2 10 -4 10 -3 0
-8 -4 -11 -10z"/>
<path d="M1880 3940 c0 -6 -4 -8 -10 -5 -5 3 -10 -2 -10 -12 0 -25 -19 -43
-44 -44 -20 -1 -18 -2 23 -15 10 -3 11 -8 2 -18 -9 -11 -7 -13 12 -13 19 0 23
4 19 22 -4 22 -2 23 37 18 27 -4 41 -2 41 6 0 6 -7 11 -15 11 -8 0 -15 4 -15
10 0 5 -7 7 -16 3 -12 -4 -15 -2 -12 8 2 7 15 16 29 20 14 4 17 7 7 8 -9 1
-23 4 -32 7 -9 3 -16 1 -16 -6z"/>
<path d="M3070 3938 c0 -5 15 -8 34 -8 19 0 37 3 39 8 3 4 -12 7 -34 7 -21 0
-39 -3 -39 -7z"/>
<path d="M3990 3920 c0 -6 7 -10 15 -10 8 0 15 2 15 4 0 2 -7 6 -15 10 -8 3
-15 1 -15 -4z"/>
<path d="M770 3916 c0 -2 7 -7 16 -10 8 -3 12 -2 9 4 -6 10 -25 14 -25 6z"/>
<path d="M3780 3914 c0 -12 46 -43 65 -44 15 0 17 2 6 9 -8 5 -10 14 -6 21 5
8 4 11 -3 6 -6 -3 -13 -2 -17 4 -7 11 -45 14 -45 4z"/>
<path d="M2074 3902 c4 -7 2 -12 -3 -12 -6 0 -11 -9 -11 -21 0 -11 4 -18 9
-15 14 9 20 45 9 53 -7 3 -8 1 -4 -5z"/>
<path d="M3541 3888 c-1 -9 -4 -24 -7 -33 -5 -13 -2 -16 17 -13 26 3 40 38 16
38 -9 0 -18 6 -20 13 -4 7 -6 6 -6 -5z"/>
<path d="M3767 3884 c-3 -4 1 -13 9 -21 17 -18 29 -11 21 12 -7 16 -19 20 -30
9z"/>
<path d="M1070 3876 c0 -2 13 -6 29 -8 17 -2 28 -1 25 4 -5 8 -54 12 -54 4z"/>
<path d="M3940 3820 c0 -5 11 -10 25 -10 14 0 25 5 25 10 0 6 -11 10 -25 10
-14 0 -25 -4 -25 -10z"/>
<path d="M3556 3792 c6 -30 -18 -72 -42 -72 -21 0 -35 -27 -28 -54 7 -28 24
-36 24 -11 0 9 11 21 25 27 14 6 25 15 25 19 0 5 6 6 14 3 8 -3 16 3 19 15 3
12 1 21 -3 21 -5 0 -10 17 -12 37 -2 20 -9 38 -15 41 -9 2 -11 -5 -7 -26z"/>
<path d="M3898 3813 c6 -2 18 -2 25 0 6 3 1 5 -13 5 -14 0 -19 -2 -12 -5z"/>
<path d="M1937 3803 c-4 -4 -33 -6 -65 -5 -31 1 -51 -1 -44 -4 6 -3 9 -11 6
-16 -5 -7 -2 -8 7 -2 8 5 31 9 52 10 70 3 77 4 77 14 0 11 -23 14 -33 3z"/>
<path d="M4136 3795 c7 -17 20 -20 28 -6 3 5 -1 12 -10 15 -22 9 -24 8 -18 -9z"/>
<path d="M4254 3759 c-3 -5 6 -9 20 -9 31 0 34 6 6 13 -11 3 -23 1 -26 -4z"/>
<path d="M870 3750 c0 -5 5 -10 11 -10 5 0 7 5 4 10 -3 6 -8 10 -11 10 -2 0
-4 -4 -4 -10z"/>
<path d="M2618 3753 c7 -3 16 -2 19 1 4 3 -2 6 -13 5 -11 0 -14 -3 -6 -6z"/>
<path d="M770 3739 c0 -12 29 -38 43 -39 16 0 6 18 -18 34 -16 11 -25 12 -25
5z"/>
<path d="M900 3740 c0 -5 5 -10 11 -10 5 0 7 5 4 10 -3 6 -8 10 -11 10 -2 0
-4 -4 -4 -10z"/>
<path d="M1910 3739 c0 -11 25 -22 39 -17 6 1 -1 8 -14 15 -14 6 -25 7 -25 2z"/>
<path d="M2556 3735 c-4 -11 2 -15 26 -15 17 0 28 3 24 8 -4 4 -11 7 -14 7 -4
0 -12 4 -18 8 -7 4 -14 0 -18 -8z"/>
<path d="M4470 3740 c20 -13 57 -13 65 0 4 6 -11 10 -37 10 -31 0 -39 -3 -28
-10z"/>
<path d="M1960 3646 c0 -2 11 -6 25 -8 14 -3 25 -1 25 3 0 5 -11 9 -25 9 -14
0 -25 -2 -25 -4z"/>
<path d="M2426 3633 c-6 -14 -5 -15 5 -6 7 7 10 15 7 18 -3 3 -9 -2 -12 -12z"/>
<path d="M2910 3611 c0 -27 3 -31 29 -31 40 0 76 -21 78 -48 2 -17 -3 -22 -20
-23 -19 0 -19 -2 7 -11 21 -8 30 -7 36 2 4 6 10 12 13 13 9 3 57 -92 54 -106
-1 -7 7 -11 20 -10 20 2 23 -3 29 -47 7 -50 7 -50 43 -50 20 0 42 -5 48 -11 8
-8 13 -8 17 0 4 6 19 11 34 12 15 0 21 3 15 6 -7 2 -17 21 -23 42 -5 21 -19
48 -30 61 -28 32 -20 45 23 43 35 -2 36 -2 20 17 -9 10 -21 17 -25 14 -5 -3
-17 1 -27 10 -15 13 -24 14 -47 6 -25 -10 -30 -8 -46 12 -10 13 -15 29 -13 36
3 7 0 22 -6 34 -10 19 -11 19 -30 2 -10 -9 -19 -23 -19 -30 0 -7 -8 -10 -21
-7 -19 5 -19 7 -5 15 9 5 14 13 11 17 -2 5 3 8 12 7 9 0 18 5 20 11 4 10 -10
11 -56 6 -48 -4 -65 -2 -79 9 -9 9 -27 19 -39 22 -20 7 -23 4 -23 -23z m305
-154 c6 -5 -1 -5 -13 -2 -20 6 -23 4 -20 -12 2 -10 13 -19 24 -21 24 -3 46
-43 34 -62 -6 -9 -10 -8 -19 6 -9 16 -10 12 -6 -18 4 -33 1 -38 -17 -38 -18 0
-19 4 -13 36 3 21 2 34 -3 30 -5 -3 -14 11 -20 31 -10 32 -9 38 11 53 12 10
24 15 27 12 3 -4 10 -10 15 -15z m35 -121 c0 -3 -4 -8 -10 -11 -5 -3 -10 -1
-10 4 0 6 5 11 10 11 6 0 10 -2 10 -4z"/>
<path d="M2420 3600 c0 -5 5 -10 10 -10 6 0 10 5 10 10 0 6 -4 10 -10 10 -5 0
-10 -4 -10 -10z"/>
<path d="M2580 3600 c0 -5 12 -10 28 -9 24 0 25 1 7 9 -27 12 -35 12 -35 0z"/>
<path d="M2616 3561 c-4 -5 -2 -12 3 -15 5 -4 12 -2 15 3 4 5 2 12 -3 15 -5 4
-12 2 -15 -3z"/>
<path d="M2955 3560 c-3 -5 -1 -10 4 -10 6 0 11 5 11 10 0 6 -2 10 -4 10 -3 0
-8 -4 -11 -10z"/>
<path d="M2660 3520 c0 -5 4 -10 9 -10 6 0 13 5 16 10 3 6 -1 10 -9 10 -9 0
-16 -4 -16 -10z"/>
<path d="M2320 3488 c0 -19 2 -20 10 -8 13 19 13 30 0 30 -5 0 -10 -10 -10
-22z"/>
<path d="M2350 3499 c0 -5 9 -9 20 -9 11 0 20 4 20 8 0 4 -9 8 -20 9 -11 1
-20 -2 -20 -8z"/>
<path d="M3315 3490 c-3 -5 -2 -10 4 -10 5 0 13 5 16 10 3 6 2 10 -4 10 -5 0
-13 -4 -16 -10z"/>
<path d="M2878 3483 c6 -2 18 -2 25 0 6 3 1 5 -13 5 -14 0 -19 -2 -12 -5z"/>
<path d="M2950 3480 c19 -13 30 -13 30 0 0 6 -10 10 -22 10 -19 0 -20 -2 -8
-10z"/>
<path d="M4395 3450 c3 -5 8 -10 11 -10 2 0 4 5 4 10 0 6 -5 10 -11 10 -5 0
-7 -4 -4 -10z"/>
<path d="M1618 3443 c6 -2 18 -2 25 0 6 3 1 5 -13 5 -14 0 -19 -2 -12 -5z"/>
<path d="M2375 3440 c-3 -5 -1 -10 4 -10 6 0 11 5 11 10 0 6 -2 10 -4 10 -3 0
-8 -4 -11 -10z"/>
<path d="M1128 3433 c7 -3 16 -2 19 1 4 3 -2 6 -13 5 -11 0 -14 -3 -6 -6z"/>
<path d="M2265 3432 c22 -16 14 -32 -17 -33 l-33 -1 30 -7 c19 -5 34 -3 40 5
6 7 23 10 38 7 31 -6 34 -1 11 21 -8 9 -30 16 -47 16 -18 0 -27 -4 -22 -8z"/>
<path d="M2895 3422 c-38 -8 -40 -22 -3 -22 39 0 68 8 68 19 0 7 -37 9 -65 3z"/>
<path d="M205 3360 c-4 -17 -5 -34 -2 -36 2 -3 7 10 11 27 8 42 0 50 -9 9z"/>
<path d="M456 3362 c-37 -15 -60 -29 -51 -30 22 -5 100 25 115 44 16 18 18 18
-64 -14z"/>
<path d="M2334 3382 c-6 -4 -14 -18 -18 -32 -6 -20 -5 -22 4 -10 15 20 31 50
28 50 -2 0 -8 -4 -14 -8z"/>
<path d="M3435 3360 c-3 -5 -2 -10 4 -10 5 0 13 5 16 10 3 6 2 10 -4 10 -5 0
-13 -4 -16 -10z"/>
<path d="M2233 3350 c2 -8 14 -16 28 -17 19 -1 20 -1 4 4 -11 3 -24 10 -28 17
-6 7 -7 6 -4 -4z"/>
<path d="M2926 3345 c-9 -26 -7 -32 5 -12 6 10 9 21 6 23 -2 3 -7 -2 -11 -11z"/>
<path d="M2888 3333 c7 -3 16 -2 19 1 4 3 -2 6 -13 5 -11 0 -14 -3 -6 -6z"/>
<path d="M191 3294 c0 -11 3 -14 6 -6 3 7 2 16 -1 19 -3 4 -6 -2 -5 -13z"/>
<path d="M1780 3290 c0 -5 7 -10 16 -10 8 0 12 5 9 10 -3 6 -10 10 -16 10 -5
0 -9 -4 -9 -10z"/>
<path d="M2941 3278 c-1 -9 -9 -18 -18 -20 -15 -3 -14 -5 4 -10 27 -7 33 0 22
27 -6 16 -8 17 -8 3z"/>
<path d="M3483 3244 c9 -3 15 -10 12 -15 -4 -5 -1 -9 5 -9 19 0 5 25 -16 27
-16 2 -16 1 -1 -3z"/>
<path d="M3194 3211 c7 -40 32 -71 55 -71 11 0 12 3 4 8 -6 4 -14 19 -18 34
-4 15 -16 35 -27 45 -21 18 -21 18 -14 -16z"/>
<path d="M3570 3230 l-25 -8 28 -1 c15 -1 27 4 27 9 0 6 -1 10 -2 9 -2 -1 -14
-5 -28 -9z"/>
<path d="M3320 3226 c0 -2 7 -6 15 -10 8 -3 15 -1 15 4 0 6 -7 10 -15 10 -8 0
-15 -2 -15 -4z"/>
<path d="M3380 3219 c0 -5 -4 -7 -10 -4 -5 3 -10 -2 -10 -12 0 -24 -34 -53
-63 -53 -13 0 -17 -3 -10 -8 6 -4 14 -19 18 -34 4 -16 21 -36 41 -47 32 -19
35 -20 40 -3 3 9 11 31 19 48 9 21 10 36 3 48 -6 11 -6 21 1 30 6 8 9 21 5 30
-7 18 -34 22 -34 5z"/>
<path d="M3144 3198 c9 -13 26 -43 38 -68 26 -56 56 -100 69 -100 5 0 9 14 9
30 0 17 -4 30 -9 30 -5 0 -13 10 -16 21 -7 21 -88 109 -101 109 -4 0 1 -10 10
-22z"/>
<path d="M2480 3200 c0 -5 5 -10 10 -10 6 0 10 5 10 10 0 6 -4 10 -10 10 -5 0
-10 -4 -10 -10z"/>
<path d="M3436 3121 c-13 -21 -18 -99 -7 -105 7 -5 11 2 12 16 1 17 3 18 6 6
8 -33 21 -18 20 22 -1 24 -7 40 -14 40 -25 0 -13 19 15 23 l27 4 -27 2 c-15 0
-29 -3 -32 -8z"/>
<path d="M3525 3120 c3 -5 8 -10 11 -10 2 0 4 5 4 10 0 6 -5 10 -11 10 -5 0
-7 -4 -4 -10z"/>
<path d="M1701 3103 c6 -10 30 -31 53 -47 l41 -28 -45 46 c-44 46 -70 61 -49
29z"/>
<path d="M138 3060 c-11 -36 -10 -178 1 -184 12 -8 17 72 11 149 -4 47 -7 54
-12 35z"/>
<path d="M1651 3044 c0 -11 3 -14 6 -6 3 7 2 16 -1 19 -3 4 -6 -2 -5 -13z"/>
<path d="M2020 3046 c0 -8 51 -13 56 -5 3 5 -9 9 -25 9 -17 0 -31 -2 -31 -4z"/>
<path d="M3261 3022 c-9 -16 -3 -21 43 -35 68 -22 77 -21 47 3 -13 11 -34 20
-48 20 -18 0 -24 4 -19 15 8 21 -11 19 -23 -3z"/>
<path d="M1760 3010 c6 -11 13 -20 16 -20 2 0 0 9 -6 20 -6 11 -13 20 -16 20
-2 0 0 -9 6 -20z"/>
<path d="M3390 2969 c0 -5 11 -9 25 -9 33 0 33 15 0 16 -14 1 -25 -2 -25 -7z"/>
<path d="M2508 2921 c-21 -22 -28 -42 -33 -95 -7 -61 -6 -68 10 -64 9 1 23 20
30 42 8 21 19 42 25 46 8 5 9 10 2 14 -8 4 -8 16 0 37 15 43 -2 52 -34 20z"/>
<path d="M2073 2933 c9 -2 23 -2 30 0 6 3 -1 5 -18 5 -16 0 -22 -2 -12 -5z"/>
<path d="M2588 2853 c7 -3 16 -2 19 1 4 3 -2 6 -13 5 -11 0 -14 -3 -6 -6z"/>
<path d="M2656 2815 c-3 -8 -1 -15 4 -15 6 0 10 7 10 15 0 8 -2 15 -4 15 -2 0
-6 -7 -10 -15z"/>
<path d="M1 2540 c1 -55 1 -55 11 -18 7 25 6 43 -1 55 -8 14 -10 6 -10 -37z"/>
<path d="M170 2582 c0 -5 7 -23 15 -38 l16 -29 -3 34 c-2 19 -9 36 -15 39 -7
2 -13 -1 -13 -6z"/>
<path d="M117 2533 c-4 -3 -7 -16 -6 -27 0 -19 1 -19 10 3 10 24 8 36 -4 24z"/>
<path d="M267 2463 c-13 -13 -37 -73 -37 -94 0 -31 19 -31 35 1 16 31 17 109
2 93z"/>
<path d="M6180 2361 c0 -10 30 -24 37 -17 3 2 -5 9 -16 16 -12 6 -21 7 -21 1z"/>
<path d="M0 2291 c0 -23 5 -41 10 -41 6 0 10 15 10 34 0 19 -4 38 -10 41 -6 4
-10 -10 -10 -34z"/>
<path d="M6272 2283 c8 -10 18 -26 21 -35 4 -10 11 -18 17 -18 5 0 10 -5 10
-10 0 -6 11 -23 25 -38 13 -14 24 -35 24 -47 0 -11 4 -37 9 -58 10 -38 10 -38
-9 -21 -12 11 -17 24 -13 37 4 13 2 17 -5 13 -6 -4 -11 0 -12 11 0 16 -1 16
-9 -2 -8 -19 -9 -19 -9 3 -1 13 -7 22 -16 22 -25 0 -17 -27 18 -56 17 -15 42
-41 55 -57 l22 -31 0 100 c0 100 0 100 -32 130 -45 42 -89 74 -101 74 -6 0 -3
-8 5 -17z m88 -68 c13 -14 21 -25 18 -25 -2 0 -15 11 -28 25 -13 14 -21 25
-18 25 2 0 15 -11 28 -25z"/>
<path d="M6230 2201 c0 -6 4 -13 10 -16 6 -3 7 1 4 9 -7 18 -14 21 -14 7z"/>
<path d="M6380 1823 c0 -4 5 -15 10 -23 8 -13 10 -13 10 2 0 9 -4 20 -10 23
-5 3 -10 3 -10 -2z"/>
<path d="M6200 1801 c0 -6 14 -18 30 -28 17 -9 30 -20 30 -24 0 -3 19 -14 43
-24 23 -11 55 -28 70 -38 l28 -19 -3 33 c-3 29 -8 34 -48 47 -25 8 -62 26 -82
39 -39 24 -68 30 -68 14z"/>
<path d="M3888 213 c7 -3 16 -2 19 1 4 3 -2 6 -13 5 -11 0 -14 -3 -6 -6z"/>
<path d="M4088 193 c7 -3 16 -2 19 1 4 3 -2 6 -13 5 -11 0 -14 -3 -6 -6z"/>
<path d="M4050 186 c0 -2 7 -7 16 -10 8 -3 12 -2 9 4 -6 10 -25 14 -25 6z"/>
<path d="M4302 151 c-12 -9 20 -36 45 -38 35 -4 26 34 -9 39 -15 3 -31 2 -36
-1z"/>
</g>
</svg>
