<?xml version="1.0" standalone="no"?>
<!DOCTYPE svg PUBLIC "-//W3C//DTD SVG 20010904//EN"
 "http://www.w3.org/TR/2001/REC-SVG-20010904/DTD/svg10.dtd">
<svg version="1.0" xmlns="http://www.w3.org/2000/svg"
 width="205.000000pt" height="204.000000pt" viewBox="0 0 205.000000 204.000000"
 preserveAspectRatio="xMidYMid meet">

<g transform="translate(0.000000,204.000000) scale(0.100000,-0.100000)"
fill="#000000" stroke="none">
<path d="M1545 1968 c-131 -69 -181 -105 -242 -172 -71 -77 -105 -185 -69
-215 21 -18 72 -1 164 53 42 24 101 54 129 65 81 32 235 59 373 67 69 4 127 8
129 10 10 9 -34 97 -70 138 -58 65 -129 97 -231 102 l-83 5 -100 -53z"/>
<path d="M811 1745 c-12 -21 -16 -37 -10 -41 6 -3 12 -4 13 -3 20 27 36 56 36
66 0 24 -18 13 -39 -22z"/>
<path d="M720 1600 c-30 -11 -56 -20 -56 -20 -1 0 -4 -9 -7 -20 -3 -13 -1 -18
6 -13 25 15 150 23 192 12 17 -5 45 -11 63 -14 30 -5 32 -4 23 14 -10 18 -118
62 -150 60 -9 0 -41 -9 -71 -19z"/>
<path d="M406 1523 c-11 -11 -6 -23 9 -23 8 0 15 4 15 9 0 13 -16 22 -24 14z"/>
<path d="M190 1479 c0 -5 5 -7 10 -4 6 3 10 8 10 11 0 2 -4 4 -10 4 -5 0 -10
-5 -10 -11z"/>
<path d="M613 1479 c-14 -14 -18 -49 -5 -49 18 1 28 17 23 38 -5 18 -8 21 -18
11z"/>
<path d="M390 1455 c0 -8 2 -15 4 -15 2 0 6 7 10 15 3 8 1 15 -4 15 -6 0 -10
-7 -10 -15z"/>
<path d="M475 1460 c-9 -15 4 -30 26 -30 22 0 24 11 7 28 -15 15 -25 15 -33 2z"/>
<path d="M915 1448 l-20 -20 25 4 c14 2 26 11 28 21 4 22 -8 21 -33 -5z"/>
<path d="M165 1429 c2 -16 0 -29 -5 -29 -6 0 -10 -6 -10 -13 0 -8 -11 -19 -25
-25 -27 -12 -30 -19 -16 -40 7 -11 9 -10 15 3 3 9 10 14 15 11 5 -4 12 0 15 6
3 7 4 4 3 -7 -1 -12 5 -21 17 -23 14 -3 17 0 13 11 -11 29 40 36 79 11 19 -13
22 -19 13 -31 -17 -19 -6 -25 25 -14 15 6 26 18 26 30 0 14 9 21 35 25 19 4
35 11 35 16 0 4 10 6 23 3 21 -4 22 -4 3 11 -11 9 -15 16 -10 16 6 0 18 6 28
13 16 12 13 13 -23 15 -26 2 -41 -2 -41 -9 0 -7 -9 -9 -25 -5 -15 4 -25 2 -25
-4 0 -6 -5 -8 -11 -5 -6 4 -19 -2 -30 -14 -21 -22 -39 -27 -39 -11 0 6 5 10
10 10 6 0 10 5 10 12 0 7 12 25 27 40 l27 28 -32 0 c-20 0 -31 -5 -30 -12 2
-6 -5 -14 -14 -16 -10 -2 -18 2 -18 10 0 8 -13 14 -34 15 -32 1 -34 0 -31 -28z
m25 1 c0 -5 -5 -10 -11 -10 -5 0 -7 5 -4 10 3 6 8 10 11 10 2 0 4 -4 4 -10z"/>
<path d="M535 1450 c-4 -6 6 -10 22 -10 22 0 25 2 13 10 -19 12 -27 12 -35 0z"/>
<path d="M663 1443 c9 -2 23 -2 30 0 6 3 -1 5 -18 5 -16 0 -22 -2 -12 -5z"/>
<path d="M740 1443 c1 -18 26 -93 31 -89 2 2 3 25 1 50 -3 31 -9 46 -18 46 -8
0 -14 -3 -14 -7z"/>
<path d="M555 1408 c2 -10 -3 -18 -11 -18 -8 0 -14 -7 -14 -15 0 -8 -5 -15
-11 -15 -6 0 -28 -17 -48 -38 -21 -21 -43 -36 -49 -34 -7 2 -18 -3 -27 -11
-12 -13 -11 -15 11 -20 19 -3 30 2 47 24 11 16 26 29 33 29 6 0 17 7 24 15 14
17 34 9 26 -11 -3 -8 1 -14 9 -14 8 0 15 -4 15 -10 0 -5 7 -10 15 -10 9 0 19
-10 24 -22 11 -28 -9 -43 -45 -34 -16 4 -30 1 -41 -9 -8 -9 -14 -17 -12 -18 2
-1 14 -8 27 -15 13 -7 22 -8 22 -2 0 5 12 10 26 10 14 0 23 -4 19 -10 -3 -6 5
-10 19 -10 15 0 30 -8 36 -21 7 -12 18 -18 26 -15 8 3 20 -3 26 -14 13 -20 48
-19 75 3 16 12 6 30 -14 23 -8 -3 -30 1 -49 9 -47 19 -42 45 12 64 76 27 127
-17 94 -79 -8 -16 -5 -19 20 -25 16 -4 34 -4 40 0 5 3 10 0 10 -9 0 -19 68
-72 103 -78 15 -3 27 -2 27 1 0 4 16 7 35 7 45 0 53 9 32 42 -10 18 -24 26
-37 25 -12 -2 -18 1 -15 7 3 6 15 10 26 10 17 0 18 3 9 20 -9 16 -21 20 -61
20 -32 0 -48 4 -44 10 4 6 16 9 28 8 28 -4 35 16 7 20 -13 2 -19 9 -17 16 3 7
8 38 12 68 7 52 6 56 -17 60 -12 3 -30 8 -38 12 -20 8 -43 -37 -27 -53 8 -8 4
-11 -12 -11 -15 0 -22 5 -20 18 3 29 -1 42 -11 42 -5 0 -10 -5 -10 -11 0 -19
-63 -89 -81 -89 -29 0 -49 40 -44 87 4 41 4 42 -20 33 -20 -8 -27 -6 -35 9 -8
16 -7 18 10 14 14 -4 20 0 20 11 0 9 -4 16 -9 16 -24 0 -78 -25 -93 -44 -13
-16 -20 -18 -28 -9 -9 8 -7 13 9 18 30 9 27 29 -3 21 -15 -4 -26 -1 -29 6 -2
7 -3 5 -2 -4z m95 -83 c10 -12 10 -15 -4 -15 -9 0 -16 7 -16 15 0 8 2 15 4 15
2 0 9 -7 16 -15z m364 -233 c2 -4 -11 -8 -29 -8 -21 0 -30 3 -22 8 16 10 44
10 51 0z"/>
<path d="M100 1406 c0 -9 30 -14 35 -6 4 6 -3 10 -14 10 -12 0 -21 -2 -21 -4z"/>
<path d="M220 1317 c-14 -6 -31 -17 -38 -25 -13 -12 -30 -11 -114 4 -20 4 -28
1 -28 -9 0 -8 -8 -14 -18 -13 -12 1 -18 -8 -20 -27 -4 -37 15 -60 44 -53 29 8
54 -2 54 -21 0 -9 -6 -13 -15 -9 -17 6 -20 -12 -5 -34 9 -13 11 -13 19 0 8 12
13 11 30 -9 12 -13 21 -29 21 -35 0 -6 -7 -3 -14 7 -10 13 -24 17 -52 14 -21
-2 -40 -9 -42 -16 -2 -6 -11 -11 -21 -11 -15 0 -17 -14 -18 -127 -2 -126 -1
-127 13 -83 14 42 14 61 2 100 -3 8 -3 12 -1 8 12 -22 25 -5 19 24 -5 25 -4
30 6 20 7 -7 14 -50 16 -102 l4 -90 59 0 58 0 4 93 3 92 2 -92 2 -93 45 0 c28
0 45 4 45 12 0 9 3 9 12 0 7 -7 18 -12 26 -12 12 0 14 11 9 60 -4 37 -3 60 3
60 6 0 10 -24 10 -54 0 -55 13 -77 32 -58 12 12 -18 215 -33 220 -6 3 -5 9 2
18 10 12 15 12 32 -3 15 -13 21 -15 24 -5 5 14 33 16 33 2 0 -5 -4 -10 -9 -10
-5 0 -8 -19 -8 -42 0 -24 -3 -66 -6 -94 -9 -80 -2 -96 42 -92 34 3 36 5 37 38
1 19 3 53 4 75 l3 40 6 -34 c7 -38 27 -52 34 -24 2 10 4 -52 3 -137 -1 -148 0
-157 24 -198 15 -27 21 -46 14 -50 -5 -4 -10 -35 -9 -69 l0 -63 -39 0 -38 0 4
-45 3 -45 -37 0 c-33 0 -38 -3 -38 -24 0 -15 -7 -26 -20 -29 -11 -3 -20 -10
-20 -16 0 -6 9 -11 20 -11 11 0 20 -5 20 -11 0 -8 -13 -9 -41 -5 l-42 7 5 -56
5 -56 -39 6 -38 7 0 -40 0 -39 58 -9 c31 -5 84 -6 117 -3 33 4 98 10 144 15
62 5 88 12 100 26 8 10 29 22 46 28 43 14 68 66 79 160 4 37 14 101 21 136 5
23 37 39 97 49 33 5 38 3 42 -17 3 -13 4 -47 3 -76 -2 -46 -6 -55 -29 -70 -22
-13 -26 -21 -21 -40 6 -25 7 -41 4 -77 -2 -31 -66 -95 -95 -95 -14 0 -27 -4
-30 -9 -6 -9 66 -4 94 6 8 3 27 5 42 4 15 -1 36 3 48 9 16 9 269 45 350 51 8
0 -1 5 -20 11 -46 13 -81 39 -104 79 -10 17 -14 29 -7 25 6 -4 11 -2 11 3 0 6
7 11 15 11 32 0 13 20 -25 26 -28 5 -46 15 -60 34 -27 38 -26 40 18 41 20 1
48 5 62 9 18 6 4 8 -47 9 l-73 1 -26 42 c-15 24 -32 46 -38 50 -41 27 -40 25
-11 60 36 43 55 88 55 133 0 28 -4 35 -20 35 -24 0 -60 -34 -60 -56 0 -8 -5
-25 -12 -37 -11 -21 -11 -21 -19 -2 -8 20 -8 20 -9 0 -1 -19 -1 -19 -14 -2
-14 17 -15 17 -22 -5 -7 -20 -9 -18 -14 17 l-6 40 -18 -60 c-10 -33 -23 -66
-29 -73 -17 -21 -45 14 -58 72 l-11 52 -47 1 c-73 0 -139 13 -145 28 -7 18 47
36 116 38 l53 2 11 45 c9 38 8 50 -7 80 -53 101 -131 131 -183 69 -14 -17 -26
-36 -26 -42 0 -7 -3 -8 -10 -1 -15 15 15 106 45 134 13 12 22 27 19 31 -2 5
10 12 27 17 39 10 46 24 23 46 -12 12 -20 14 -27 7 -18 -18 -63 -12 -82 9 -19
21 -85 26 -85 7 0 -5 -9 -7 -19 -4 -13 3 -21 -1 -24 -12 -3 -10 -5 -7 -6 8 -1
18 -5 22 -21 18 -17 -4 -20 0 -20 24 0 16 5 29 10 29 6 0 10 -5 10 -12 0 -9 3
-9 11 -1 16 16 1 35 -22 28 -10 -4 -29 1 -41 9 l-22 16 27 0 c15 0 27 4 27 9
0 6 -24 8 -55 5 -43 -3 -55 -1 -55 10 0 12 -7 12 -36 4 -33 -9 -65 -1 -36 9
10 4 49 65 40 62 -2 0 -14 -6 -28 -12z m-78 -57 c29 0 78 -42 57 -49 -6 -2
-14 1 -18 7 -13 22 -45 17 -52 -8 -7 -24 -7 -24 -8 -2 -1 15 -7 22 -22 22 -26
0 -55 26 -36 34 6 3 21 3 32 1 11 -3 32 -5 47 -5z m226 -85 c-3 -14 -2 -25 2
-25 4 0 8 -12 8 -27 0 -24 -2 -25 -13 -10 -7 9 -19 17 -28 17 -8 0 -23 3 -32
6 -14 6 -13 8 5 21 11 8 20 21 20 29 0 8 9 14 21 14 17 0 20 -5 17 -25z m-246
-17 c-7 -7 -12 -8 -12 -2 0 14 12 26 19 19 2 -3 -1 -11 -7 -17z m195 16 c-3
-3 -12 -4 -19 -1 -8 3 -5 6 6 6 11 1 17 -2 13 -5z m358 -94 c-3 -5 -11 -10
-16 -10 -6 0 -7 5 -4 10 3 6 11 10 16 10 6 0 7 -4 4 -10z m-61 -13 c-4 -12
-55 -47 -68 -47 -3 0 -6 5 -6 10 0 6 6 10 14 10 8 0 18 9 21 20 3 11 15 20 25
20 12 0 17 -5 14 -13z m-114 -59 c0 -18 -2 -20 -9 -8 -6 8 -7 18 -5 22 9 14
14 9 14 -14z m-223 -50 c-3 -7 -5 -2 -5 12 0 14 2 19 5 13 2 -7 2 -19 0 -25z"/>
<path d="M1280 1269 c0 -5 5 -7 10 -4 6 3 10 8 10 11 0 2 -4 4 -10 4 -5 0 -10
-5 -10 -11z"/>
<path d="M1045 1250 c-3 -5 -1 -10 4 -10 6 0 11 5 11 10 0 6 -2 10 -4 10 -3 0
-8 -4 -11 -10z"/>
<path d="M1089 1223 c-13 -15 -12 -15 9 -4 23 12 28 21 13 21 -5 0 -15 -7 -22
-17z"/>
<path d="M1070 1183 c0 -13 5 -23 10 -23 13 0 13 11 0 30 -8 12 -10 11 -10 -7z"/>
<path d="M1125 1170 c-3 -6 1 -7 9 -4 18 7 21 14 7 14 -6 0 -13 -4 -16 -10z"/>
<path d="M1095 1100 c-3 -5 1 -10 10 -10 9 0 13 5 10 10 -3 6 -8 10 -10 10 -2
0 -7 -4 -10 -10z"/>
<path d="M828 1093 c0 -5 -1 -15 -2 -23 -2 -23 -33 -24 -46 -1 -15 29 -40 26
-72 -8 l-28 -29 51 -4 c27 -1 54 1 59 6 12 12 70 -3 77 -20 3 -8 11 -14 19
-14 8 0 14 -6 14 -12 1 -7 7 -2 15 12 13 23 12 27 -8 45 -13 12 -26 29 -30 38
-6 17 -46 24 -49 10z"/>
<path d="M370 1001 c0 -34 15 -49 24 -25 11 28 6 54 -9 54 -10 0 -15 -10 -15
-29z"/>
<path d="M1076 905 c-4 -14 -2 -33 3 -43 8 -13 10 -8 11 26 0 48 -5 54 -14 17z"/>
<path d="M1500 894 c0 -10 -6 -14 -15 -10 -10 4 -15 -1 -15 -14 0 -16 7 -20
35 -20 30 0 34 3 32 23 -3 34 -37 53 -37 21z"/>
<path d="M1140 891 c0 -30 14 -41 54 -41 49 0 56 4 49 31 -4 15 -14 19 -54 19
-27 0 -49 -4 -49 -9z"/>
<path d="M1288 893 c-10 -2 -18 -13 -18 -24 0 -14 7 -19 30 -19 17 0 30 5 30
10 0 6 -7 10 -15 10 -18 0 -20 16 -2 23 15 7 -2 6 -25 0z"/>
<path d="M506 882 c-2 -4 -1 -14 5 -22 7 -12 9 -10 9 8 0 23 -5 28 -14 14z"/>
<path d="M2000 860 c0 -11 5 -20 10 -20 6 0 10 9 10 20 0 11 -4 20 -10 20 -5
0 -10 -9 -10 -20z"/>
<path d="M1360 860 c0 -5 5 -10 10 -10 6 0 10 5 10 10 0 6 -4 10 -10 10 -5 0
-10 -4 -10 -10z"/>
<path d="M1550 860 c0 -5 7 -10 15 -10 8 0 15 5 15 10 0 6 -7 10 -15 10 -8 0
-15 -4 -15 -10z"/>
<path d="M1610 860 c0 -5 5 -10 10 -10 6 0 10 5 10 10 0 6 -4 10 -10 10 -5 0
-10 -4 -10 -10z"/>
<path d="M133 783 c9 -2 25 -2 35 0 9 3 1 5 -18 5 -19 0 -27 -2 -17 -5z"/>
<path d="M213 783 c15 -2 39 -2 55 0 15 2 2 4 -28 4 -30 0 -43 -2 -27 -4z"/>
<path d="M1981 457 c2 -2 16 -11 32 -20 26 -17 27 -17 27 3 0 16 -7 20 -32 20
-17 0 -29 -1 -27 -3z"/>
<path d="M860 372 c0 -14 8 -21 30 -24 27 -4 31 -2 28 16 -4 29 -58 36 -58 8z"/>
<path d="M2000 322 c0 -63 4 -74 26 -65 10 4 14 23 14 64 0 52 -2 59 -20 59
-18 0 -20 -7 -20 -58z"/>
<path d="M953 325 c0 -8 4 -12 9 -9 5 3 6 10 3 15 -9 13 -12 11 -12 -6z"/>
<path d="M1283 273 c9 -2 25 -2 35 0 9 3 1 5 -18 5 -19 0 -27 -2 -17 -5z"/>
<path d="M12 215 c2 -16 12 -20 43 -22 22 -1 34 0 27 3 -6 3 -9 10 -6 15 3 6
-6 8 -22 5 -16 -3 -32 0 -37 7 -5 8 -7 5 -5 -8z"/>
<path d="M98 212 c6 -2 8 -10 6 -17 -5 -11 0 -12 23 -6 15 4 47 7 71 6 23 0
42 3 42 8 0 5 -11 6 -24 3 -14 -3 -27 -2 -31 3 -3 5 -26 9 -51 8 -25 -1 -41
-3 -36 -5z"/>
<path d="M1994 203 c-26 -5 -71 -80 -56 -95 17 -17 45 -5 63 27 21 38 33 75
22 74 -4 -1 -17 -4 -29 -6z"/>
</g>
</svg>
