<?xml version="1.0" standalone="no"?>
<!DOCTYPE svg PUBLIC "-//W3C//DTD SVG 20010904//EN"
 "http://www.w3.org/TR/2001/REC-SVG-20010904/DTD/svg10.dtd">
<svg version="1.0" xmlns="http://www.w3.org/2000/svg"
 width="44.000000pt" height="46.000000pt" viewBox="0 0 44.000000 46.000000"
 preserveAspectRatio="xMidYMid meet">

<g transform="translate(0.000000,46.000000) scale(0.100000,-0.100000)"
fill="#000000" stroke="none">
<path d="M51 386 c-31 -32 -40 -56 -21 -56 6 0 10 5 10 10 0 6 7 10 16 10 8 0
12 5 9 11 -4 6 2 13 13 16 25 6 36 29 18 36 -8 3 -28 -9 -45 -27z"/>
<path d="M147 392 c-10 -10 -17 -24 -17 -31 0 -8 -7 -10 -20 -6 -15 5 -18 3
-14 -10 5 -13 2 -15 -20 -9 -17 4 -26 2 -26 -6 0 -6 4 -8 10 -5 5 3 19 1 31
-5 l21 -12 -22 -20 c-12 -11 -24 -18 -27 -15 -2 3 -18 1 -34 -5 -28 -10 -29
-12 -29 -75 l0 -65 29 7 c37 8 88 -13 146 -62 l45 -37 -32 -18 -33 -17 64 2
c41 1 66 7 69 15 2 7 -7 12 -25 13 -31 0 -28 2 44 29 34 13 63 56 63 94 1 28
33 98 54 115 19 16 14 41 -16 84 -19 27 -61 37 -73 17 -12 -19 -57 -10 -81 15
-28 31 -83 34 -107 7z m107 -38 c21 -21 28 -51 24 -110 -2 -37 -7 -50 -20 -52
-11 -2 -18 3 -18 12 0 10 -9 16 -23 16 -39 0 -68 40 -65 88 3 37 4 39 20 25
18 -16 43 -9 32 9 -4 6 0 14 7 19 19 12 25 11 43 -7z m114 -26 c-4 -12 -58
-31 -58 -21 0 9 34 32 48 33 8 0 12 -5 10 -12z m-276 -101 c-12 -6 -25 -7 -29
-3 -11 10 18 25 35 18 13 -4 11 -8 -6 -15z m-52 -7 c0 -5 -4 -10 -10 -10 -5 0
-10 5 -10 10 0 6 5 10 10 10 6 0 10 -4 10 -10z m265 -120 c7 -11 -11 -40 -24
-40 -3 0 -13 5 -21 10 -13 9 -12 12 4 25 23 18 33 19 41 5z"/>
<path d="M425 260 c-3 -5 -1 -10 4 -10 6 0 11 5 11 10 0 6 -2 10 -4 10 -3 0
-8 -4 -11 -10z"/>
<path d="M404 213 c2 -10 9 -18 17 -18 20 0 17 29 -3 33 -11 2 -16 -3 -14 -15z"/>
<path d="M20 102 c0 -5 7 -15 15 -22 12 -10 19 -10 27 -2 14 14 11 17 -19 26
-13 4 -23 3 -23 -2z"/>
<path d="M320 45 c0 -19 6 -19 14 0 3 8 1 15 -4 15 -6 0 -10 -7 -10 -15z"/>
</g>
</svg>
